<mxfile host="app.diagrams.net" modified="2023-02-20T14:16:32.084Z" agent="5.0 (Windows NT 10.0; Win64; x64) AppleWebKit/537.36 (KHTML, like Gecko) Chrome/110.0.0.0 Safari/537.36" etag="skYz0rLzslT6Ub4Kg_6L" version="20.8.20" type="github">
  <diagram name="Page-1" id="13e1069c-82ec-6db2-03f1-153e76fe0fe0">
    <mxGraphModel dx="7740" dy="3820" grid="0" gridSize="10" guides="1" tooltips="1" connect="1" arrows="1" fold="1" page="1" pageScale="1" pageWidth="4681" pageHeight="3300" background="none" math="0" shadow="0">
      <root>
        <mxCell id="0" />
        <mxCell id="1" parent="0" />
        <mxCell id="7baba1c4bc27f4b0-2" value="&lt;font style=&quot;font-size: 17px;&quot;&gt;Middleware&lt;/font&gt;" style="shape=umlLifeline;perimeter=lifelinePerimeter;whiteSpace=wrap;html=1;container=1;collapsible=0;recursiveResize=0;outlineConnect=0;rounded=1;shadow=0;comic=0;labelBackgroundColor=none;strokeWidth=1;fontFamily=Verdana;fontSize=12;align=center;" parent="1" vertex="1">
          <mxGeometry x="849" y="1044" width="126" height="1280" as="geometry" />
        </mxCell>
        <mxCell id="7baba1c4bc27f4b0-6" value="&lt;font style=&quot;font-size: 17px;&quot;&gt;S&lt;/font&gt;" style="shape=umlLifeline;perimeter=lifelinePerimeter;whiteSpace=wrap;html=1;container=1;collapsible=0;recursiveResize=0;outlineConnect=0;rounded=1;shadow=0;comic=0;labelBackgroundColor=none;strokeWidth=1;fontFamily=Verdana;fontSize=12;align=center;" parent="7baba1c4bc27f4b0-2" vertex="1">
          <mxGeometry x="610" width="110" height="1280" as="geometry" />
        </mxCell>
        <mxCell id="bU0_iT4Fgn5RnMaW8USa-173" value="" style="html=1;points=[];perimeter=orthogonalPerimeter;outlineConnect=0;targetShapes=umlLifeline;portConstraint=eastwest;newEdgeStyle={&quot;edgeStyle&quot;:&quot;elbowEdgeStyle&quot;,&quot;elbow&quot;:&quot;vertical&quot;,&quot;curved&quot;:0,&quot;rounded&quot;:0};rounded=1;labelBorderColor=default;fontSize=17;fillColor=#ffe6cc;strokeColor=#d79b00;" vertex="1" parent="7baba1c4bc27f4b0-6">
          <mxGeometry x="50" y="140" width="10" height="40" as="geometry" />
        </mxCell>
        <mxCell id="bU0_iT4Fgn5RnMaW8USa-187" value="" style="html=1;points=[];perimeter=orthogonalPerimeter;outlineConnect=0;targetShapes=umlLifeline;portConstraint=eastwest;newEdgeStyle={&quot;edgeStyle&quot;:&quot;elbowEdgeStyle&quot;,&quot;elbow&quot;:&quot;vertical&quot;,&quot;curved&quot;:0,&quot;rounded&quot;:0};rounded=1;labelBorderColor=default;fontSize=17;fillColor=#ffe6cc;strokeColor=#d79b00;" vertex="1" parent="7baba1c4bc27f4b0-6">
          <mxGeometry x="50" y="460" width="10" height="80" as="geometry" />
        </mxCell>
        <mxCell id="bU0_iT4Fgn5RnMaW8USa-120" value="" style="endArrow=classic;html=1;rounded=0;fontSize=17;" edge="1" parent="7baba1c4bc27f4b0-2" target="bU0_iT4Fgn5RnMaW8USa-184">
          <mxGeometry width="50" height="50" relative="1" as="geometry">
            <mxPoint x="66" y="1020" as="sourcePoint" />
            <mxPoint x="206" y="1020" as="targetPoint" />
            <Array as="points">
              <mxPoint x="182" y="1020" />
            </Array>
          </mxGeometry>
        </mxCell>
        <mxCell id="bU0_iT4Fgn5RnMaW8USa-121" value="send CAN" style="edgeLabel;html=1;align=center;verticalAlign=middle;resizable=0;points=[];fontSize=17;" vertex="1" connectable="0" parent="bU0_iT4Fgn5RnMaW8USa-120">
          <mxGeometry x="0.1654" y="6" relative="1" as="geometry">
            <mxPoint x="-14" y="-7" as="offset" />
          </mxGeometry>
        </mxCell>
        <mxCell id="bU0_iT4Fgn5RnMaW8USa-122" value="" style="endArrow=classic;html=1;rounded=0;fontSize=17;entryX=0.469;entryY=0.308;entryDx=0;entryDy=0;entryPerimeter=0;" edge="1" parent="7baba1c4bc27f4b0-2">
          <mxGeometry width="50" height="50" relative="1" as="geometry">
            <mxPoint x="206" y="1020" as="sourcePoint" />
            <mxPoint x="983" y="1020" as="targetPoint" />
            <Array as="points">
              <mxPoint x="401.31999999999994" y="1020" />
              <mxPoint x="531.3199999999999" y="1020" />
            </Array>
          </mxGeometry>
        </mxCell>
        <mxCell id="bU0_iT4Fgn5RnMaW8USa-123" value="send data via CAN bus" style="edgeLabel;html=1;align=center;verticalAlign=middle;resizable=0;points=[];fontSize=17;" vertex="1" connectable="0" parent="bU0_iT4Fgn5RnMaW8USa-122">
          <mxGeometry x="-0.2207" y="5" relative="1" as="geometry">
            <mxPoint x="101" y="5" as="offset" />
          </mxGeometry>
        </mxCell>
        <mxCell id="bU0_iT4Fgn5RnMaW8USa-125" value="" style="endArrow=classic;html=1;rounded=0;fontSize=17;" edge="1" parent="7baba1c4bc27f4b0-2" target="bU0_iT4Fgn5RnMaW8USa-170">
          <mxGeometry width="50" height="50" relative="1" as="geometry">
            <mxPoint x="-104" y="1020" as="sourcePoint" />
            <mxPoint x="61" y="1020" as="targetPoint" />
          </mxGeometry>
        </mxCell>
        <mxCell id="bU0_iT4Fgn5RnMaW8USa-126" value="send data" style="edgeLabel;html=1;align=center;verticalAlign=middle;resizable=0;points=[];fontSize=17;" vertex="1" connectable="0" parent="bU0_iT4Fgn5RnMaW8USa-125">
          <mxGeometry x="0.366" relative="1" as="geometry">
            <mxPoint x="-27" y="-12" as="offset" />
          </mxGeometry>
        </mxCell>
        <mxCell id="bU0_iT4Fgn5RnMaW8USa-127" value="" style="endArrow=classic;html=1;rounded=0;fontSize=15;dashed=1;dashPattern=8 8;" edge="1" parent="7baba1c4bc27f4b0-2">
          <mxGeometry width="50" height="50" relative="1" as="geometry">
            <mxPoint x="495.5" y="980.0000000000005" as="sourcePoint" />
            <mxPoint x="-110" y="980" as="targetPoint" />
            <Array as="points">
              <mxPoint x="-44" y="980" />
            </Array>
          </mxGeometry>
        </mxCell>
        <mxCell id="bU0_iT4Fgn5RnMaW8USa-128" value="&lt;font style=&quot;font-size: 17px;&quot;&gt;return light switch state&lt;br&gt;&lt;/font&gt;" style="edgeLabel;html=1;align=center;verticalAlign=middle;resizable=0;points=[];fontSize=15;" vertex="1" connectable="0" parent="bU0_iT4Fgn5RnMaW8USa-127">
          <mxGeometry x="-0.0374" relative="1" as="geometry">
            <mxPoint x="1" as="offset" />
          </mxGeometry>
        </mxCell>
        <mxCell id="bU0_iT4Fgn5RnMaW8USa-129" value="" style="endArrow=classic;html=1;rounded=0;fontSize=17;" edge="1" parent="7baba1c4bc27f4b0-2" target="bU0_iT4Fgn5RnMaW8USa-186">
          <mxGeometry width="50" height="50" relative="1" as="geometry">
            <mxPoint x="-110" y="960" as="sourcePoint" />
            <mxPoint x="486" y="960" as="targetPoint" />
            <Array as="points">
              <mxPoint x="154.32" y="960" />
            </Array>
          </mxGeometry>
        </mxCell>
        <mxCell id="bU0_iT4Fgn5RnMaW8USa-130" value="get light switch state" style="edgeLabel;html=1;align=center;verticalAlign=middle;resizable=0;points=[];fontSize=17;" vertex="1" connectable="0" parent="bU0_iT4Fgn5RnMaW8USa-129">
          <mxGeometry x="0.0959" y="4" relative="1" as="geometry">
            <mxPoint as="offset" />
          </mxGeometry>
        </mxCell>
        <mxCell id="bU0_iT4Fgn5RnMaW8USa-131" value="" style="endArrow=classic;html=1;rounded=0;fontSize=15;dashed=1;dashPattern=8 8;" edge="1" parent="7baba1c4bc27f4b0-2">
          <mxGeometry width="50" height="50" relative="1" as="geometry">
            <mxPoint x="986" y="1040" as="sourcePoint" />
            <mxPoint x="-110" y="1040" as="targetPoint" />
            <Array as="points">
              <mxPoint x="586" y="1040" />
            </Array>
          </mxGeometry>
        </mxCell>
        <mxCell id="bU0_iT4Fgn5RnMaW8USa-132" value="&lt;font style=&quot;font-size: 17px;&quot;&gt;return sending state&lt;br&gt;&lt;/font&gt;" style="edgeLabel;html=1;align=center;verticalAlign=middle;resizable=0;points=[];fontSize=15;" vertex="1" connectable="0" parent="bU0_iT4Fgn5RnMaW8USa-131">
          <mxGeometry x="-0.0374" relative="1" as="geometry">
            <mxPoint x="1" as="offset" />
          </mxGeometry>
        </mxCell>
        <mxCell id="bU0_iT4Fgn5RnMaW8USa-133" value="if 5ms passed" style="shape=umlFrame;whiteSpace=wrap;html=1;pointerEvents=0;fontSize=17;width=96;height=50;" vertex="1" parent="7baba1c4bc27f4b0-2">
          <mxGeometry x="-290" y="430" width="1340" height="740" as="geometry" />
        </mxCell>
        <mxCell id="bU0_iT4Fgn5RnMaW8USa-159" value="else if 20ms&lt;br&gt;passed" style="text;html=1;align=center;verticalAlign=middle;resizable=0;points=[];autosize=1;strokeColor=none;fillColor=none;fontSize=17;rounded=1;labelBorderColor=default;arcSize=50;" vertex="1" parent="7baba1c4bc27f4b0-2">
          <mxGeometry x="-290" y="890" width="110" height="50" as="geometry" />
        </mxCell>
        <mxCell id="bU0_iT4Fgn5RnMaW8USa-158" value="else if 10ms&lt;br&gt;passed" style="text;html=1;align=center;verticalAlign=middle;resizable=0;points=[];autosize=1;strokeColor=none;fillColor=none;fontSize=17;rounded=1;labelBorderColor=default;" vertex="1" parent="7baba1c4bc27f4b0-2">
          <mxGeometry x="-290" y="660" width="110" height="50" as="geometry" />
        </mxCell>
        <mxCell id="bU0_iT4Fgn5RnMaW8USa-157" value="" style="endArrow=none;dashed=1;html=1;dashPattern=1 3;strokeWidth=2;rounded=0;fontSize=17;entryX=1.002;entryY=0.259;entryDx=0;entryDy=0;entryPerimeter=0;" edge="1" parent="7baba1c4bc27f4b0-2">
          <mxGeometry width="50" height="50" relative="1" as="geometry">
            <mxPoint x="-290" y="640" as="sourcePoint" />
            <mxPoint x="1052.6799999999994" y="641.6599999999999" as="targetPoint" />
          </mxGeometry>
        </mxCell>
        <mxCell id="7baba1c4bc27f4b0-3" value="&lt;font style=&quot;font-size: 17px;&quot;&gt;BCM&lt;/font&gt;" style="shape=umlLifeline;perimeter=lifelinePerimeter;whiteSpace=wrap;html=1;container=1;collapsible=0;recursiveResize=0;outlineConnect=0;rounded=1;shadow=0;comic=0;labelBackgroundColor=none;strokeWidth=1;fontFamily=Verdana;fontSize=12;align=center;" parent="1" vertex="1">
          <mxGeometry x="1005" y="1044" width="130" height="1280" as="geometry" />
        </mxCell>
        <mxCell id="bU0_iT4Fgn5RnMaW8USa-38" value="" style="endArrow=classic;html=1;rounded=0;fontSize=17;" edge="1" parent="7baba1c4bc27f4b0-3">
          <mxGeometry width="50" height="50" relative="1" as="geometry">
            <mxPoint x="-94" y="561" as="sourcePoint" />
            <mxPoint x="60" y="561" as="targetPoint" />
            <Array as="points">
              <mxPoint x="22" y="561" />
            </Array>
          </mxGeometry>
        </mxCell>
        <mxCell id="bU0_iT4Fgn5RnMaW8USa-39" value="send CAN" style="edgeLabel;html=1;align=center;verticalAlign=middle;resizable=0;points=[];fontSize=17;" vertex="1" connectable="0" parent="bU0_iT4Fgn5RnMaW8USa-38">
          <mxGeometry x="0.1654" y="6" relative="1" as="geometry">
            <mxPoint x="-14" y="-7" as="offset" />
          </mxGeometry>
        </mxCell>
        <mxCell id="bU0_iT4Fgn5RnMaW8USa-160" value="" style="endArrow=none;dashed=1;html=1;dashPattern=1 3;strokeWidth=2;rounded=0;fontSize=17;entryX=1.002;entryY=0.259;entryDx=0;entryDy=0;entryPerimeter=0;" edge="1" parent="7baba1c4bc27f4b0-3">
          <mxGeometry width="50" height="50" relative="1" as="geometry">
            <mxPoint x="-446" y="880" as="sourcePoint" />
            <mxPoint x="896.6799999999994" y="881.6599999999999" as="targetPoint" />
          </mxGeometry>
        </mxCell>
        <mxCell id="bU0_iT4Fgn5RnMaW8USa-180" value="" style="html=1;points=[];perimeter=orthogonalPerimeter;outlineConnect=0;targetShapes=umlLifeline;portConstraint=eastwest;newEdgeStyle={&quot;edgeStyle&quot;:&quot;elbowEdgeStyle&quot;,&quot;elbow&quot;:&quot;vertical&quot;,&quot;curved&quot;:0,&quot;rounded&quot;:0};rounded=1;labelBorderColor=default;fontSize=17;fillColor=#ffe6cc;strokeColor=#d79b00;" vertex="1" parent="7baba1c4bc27f4b0-3">
          <mxGeometry x="60" y="530" width="10" height="40" as="geometry" />
        </mxCell>
        <mxCell id="7baba1c4bc27f4b0-4" value="&lt;font style=&quot;font-size: 17px;&quot;&gt;D&lt;/font&gt;" style="shape=umlLifeline;perimeter=lifelinePerimeter;whiteSpace=wrap;html=1;container=1;collapsible=0;recursiveResize=0;outlineConnect=0;rounded=1;shadow=0;comic=0;labelBackgroundColor=none;strokeWidth=1;fontFamily=Verdana;fontSize=12;align=center;" parent="1" vertex="1">
          <mxGeometry x="1163" y="1044" width="100" height="1280" as="geometry" />
        </mxCell>
        <mxCell id="bU0_iT4Fgn5RnMaW8USa-109" value="" style="endArrow=classic;html=1;rounded=0;fontSize=17;" edge="1" parent="7baba1c4bc27f4b0-4" target="bU0_iT4Fgn5RnMaW8USa-175">
          <mxGeometry width="50" height="50" relative="1" as="geometry">
            <mxPoint x="-94" y="798" as="sourcePoint" />
            <mxPoint x="672" y="798" as="targetPoint" />
            <Array as="points">
              <mxPoint x="101.31999999999994" y="798" />
              <mxPoint x="231.31999999999994" y="798" />
            </Array>
          </mxGeometry>
        </mxCell>
        <mxCell id="bU0_iT4Fgn5RnMaW8USa-110" value="send data via CAN bus" style="edgeLabel;html=1;align=center;verticalAlign=middle;resizable=0;points=[];fontSize=17;" vertex="1" connectable="0" parent="bU0_iT4Fgn5RnMaW8USa-109">
          <mxGeometry x="-0.2207" y="5" relative="1" as="geometry">
            <mxPoint x="47" y="-9" as="offset" />
          </mxGeometry>
        </mxCell>
        <mxCell id="bU0_iT4Fgn5RnMaW8USa-116" value="" style="endArrow=classic;html=1;rounded=0;fontSize=17;" edge="1" parent="7baba1c4bc27f4b0-4">
          <mxGeometry width="50" height="50" relative="1" as="geometry">
            <mxPoint x="-418" y="720" as="sourcePoint" />
            <mxPoint x="42" y="720" as="targetPoint" />
            <Array as="points">
              <mxPoint x="-135.68" y="720" />
            </Array>
          </mxGeometry>
        </mxCell>
        <mxCell id="bU0_iT4Fgn5RnMaW8USa-117" value="read door sensor" style="edgeLabel;html=1;align=center;verticalAlign=middle;resizable=0;points=[];fontSize=17;" vertex="1" connectable="0" parent="bU0_iT4Fgn5RnMaW8USa-116">
          <mxGeometry x="0.0959" y="4" relative="1" as="geometry">
            <mxPoint as="offset" />
          </mxGeometry>
        </mxCell>
        <mxCell id="bU0_iT4Fgn5RnMaW8USa-171" value="" style="html=1;points=[];perimeter=orthogonalPerimeter;outlineConnect=0;targetShapes=umlLifeline;portConstraint=eastwest;newEdgeStyle={&quot;edgeStyle&quot;:&quot;elbowEdgeStyle&quot;,&quot;elbow&quot;:&quot;vertical&quot;,&quot;curved&quot;:0,&quot;rounded&quot;:0};rounded=1;labelBorderColor=default;fontSize=17;fillColor=#ffe6cc;strokeColor=#d79b00;" vertex="1" parent="7baba1c4bc27f4b0-4">
          <mxGeometry x="45" y="60" width="10" height="40" as="geometry" />
        </mxCell>
        <mxCell id="7baba1c4bc27f4b0-5" value="&lt;font style=&quot;font-size: 17px;&quot;&gt;L&lt;/font&gt;" style="shape=umlLifeline;perimeter=lifelinePerimeter;whiteSpace=wrap;html=1;container=1;collapsible=0;recursiveResize=0;outlineConnect=0;rounded=1;shadow=0;comic=0;labelBackgroundColor=none;strokeWidth=1;fontFamily=Verdana;fontSize=12;align=center;" parent="1" vertex="1">
          <mxGeometry x="1295" y="1044" width="100" height="1280" as="geometry" />
        </mxCell>
        <mxCell id="bU0_iT4Fgn5RnMaW8USa-172" value="" style="html=1;points=[];perimeter=orthogonalPerimeter;outlineConnect=0;targetShapes=umlLifeline;portConstraint=eastwest;newEdgeStyle={&quot;edgeStyle&quot;:&quot;elbowEdgeStyle&quot;,&quot;elbow&quot;:&quot;vertical&quot;,&quot;curved&quot;:0,&quot;rounded&quot;:0};rounded=1;labelBorderColor=default;fontSize=17;fillColor=#ffe6cc;strokeColor=#d79b00;" vertex="1" parent="7baba1c4bc27f4b0-5">
          <mxGeometry x="45" y="100" width="10" height="40" as="geometry" />
        </mxCell>
        <mxCell id="7baba1c4bc27f4b0-8" value="&lt;font style=&quot;font-size: 17px;&quot;&gt;APP&lt;/font&gt;" style="shape=umlLifeline;perimeter=lifelinePerimeter;whiteSpace=wrap;html=1;container=1;collapsible=0;recursiveResize=0;outlineConnect=0;rounded=1;shadow=0;comic=0;labelBackgroundColor=none;strokeWidth=1;fontFamily=Verdana;fontSize=12;align=center;" parent="1" vertex="1">
          <mxGeometry x="655" y="1044" width="160" height="1280" as="geometry" />
        </mxCell>
        <mxCell id="bU0_iT4Fgn5RnMaW8USa-105" value="" style="endArrow=classic;html=1;rounded=0;fontSize=17;" edge="1" parent="7baba1c4bc27f4b0-8" target="bU0_iT4Fgn5RnMaW8USa-168">
          <mxGeometry width="50" height="50" relative="1" as="geometry">
            <mxPoint x="80" y="560" as="sourcePoint" />
            <mxPoint x="260" y="560" as="targetPoint" />
          </mxGeometry>
        </mxCell>
        <mxCell id="bU0_iT4Fgn5RnMaW8USa-106" value="send data" style="edgeLabel;html=1;align=center;verticalAlign=middle;resizable=0;points=[];fontSize=17;" vertex="1" connectable="0" parent="bU0_iT4Fgn5RnMaW8USa-105">
          <mxGeometry x="0.366" relative="1" as="geometry">
            <mxPoint x="-27" y="-12" as="offset" />
          </mxGeometry>
        </mxCell>
        <mxCell id="bU0_iT4Fgn5RnMaW8USa-4" value="&lt;font style=&quot;font-size: 17px;&quot;&gt;CAN&lt;/font&gt;" style="shape=umlLifeline;perimeter=lifelinePerimeter;whiteSpace=wrap;html=1;container=1;collapsible=0;recursiveResize=0;outlineConnect=0;rounded=1;shadow=0;comic=0;labelBackgroundColor=none;strokeWidth=1;fontFamily=Verdana;fontSize=12;align=center;" vertex="1" parent="1">
          <mxGeometry x="1785" y="1044" width="100" height="1270" as="geometry" />
        </mxCell>
        <mxCell id="bU0_iT4Fgn5RnMaW8USa-5" value="&lt;font style=&quot;font-size: 17px;&quot;&gt;DIO&lt;/font&gt;" style="shape=umlLifeline;perimeter=lifelinePerimeter;whiteSpace=wrap;html=1;container=1;collapsible=0;recursiveResize=0;outlineConnect=0;rounded=1;shadow=0;comic=0;labelBackgroundColor=none;strokeWidth=1;fontFamily=Verdana;fontSize=12;align=center;" vertex="1" parent="1">
          <mxGeometry x="1905" y="1044" width="100" height="1270" as="geometry" />
        </mxCell>
        <mxCell id="bU0_iT4Fgn5RnMaW8USa-6" value="" style="endArrow=classic;html=1;rounded=0;fontSize=17;startArrow=none;" edge="1" parent="1" source="bU0_iT4Fgn5RnMaW8USa-167" target="7baba1c4bc27f4b0-4">
          <mxGeometry width="50" height="50" relative="1" as="geometry">
            <mxPoint x="715" y="1134" as="sourcePoint" />
            <mxPoint x="765" y="1084" as="targetPoint" />
            <Array as="points">
              <mxPoint x="925" y="1124" />
              <mxPoint x="1055" y="1124" />
            </Array>
          </mxGeometry>
        </mxCell>
        <mxCell id="bU0_iT4Fgn5RnMaW8USa-10" value="" style="endArrow=classic;html=1;rounded=0;fontSize=17;" edge="1" parent="1" target="7baba1c4bc27f4b0-6">
          <mxGeometry width="50" height="50" relative="1" as="geometry">
            <mxPoint x="740" y="1208" as="sourcePoint" />
            <mxPoint x="1414.5" y="1208" as="targetPoint" />
            <Array as="points">
              <mxPoint x="916" y="1208" />
              <mxPoint x="1046" y="1208" />
            </Array>
          </mxGeometry>
        </mxCell>
        <mxCell id="bU0_iT4Fgn5RnMaW8USa-11" value="Create Instance" style="edgeLabel;html=1;align=center;verticalAlign=middle;resizable=0;points=[];fontSize=17;" vertex="1" connectable="0" parent="bU0_iT4Fgn5RnMaW8USa-10">
          <mxGeometry x="-0.2207" y="5" relative="1" as="geometry">
            <mxPoint x="47" y="-9" as="offset" />
          </mxGeometry>
        </mxCell>
        <mxCell id="bU0_iT4Fgn5RnMaW8USa-8" value="" style="endArrow=classic;html=1;rounded=0;fontSize=17;" edge="1" parent="1" source="7baba1c4bc27f4b0-8" target="7baba1c4bc27f4b0-5">
          <mxGeometry width="50" height="50" relative="1" as="geometry">
            <mxPoint x="715" y="1164" as="sourcePoint" />
            <mxPoint x="1136" y="1164" as="targetPoint" />
            <Array as="points">
              <mxPoint x="926" y="1164" />
              <mxPoint x="1056" y="1164" />
            </Array>
          </mxGeometry>
        </mxCell>
        <mxCell id="bU0_iT4Fgn5RnMaW8USa-9" value="Create Instance" style="edgeLabel;html=1;align=center;verticalAlign=middle;resizable=0;points=[];fontSize=17;" vertex="1" connectable="0" parent="bU0_iT4Fgn5RnMaW8USa-8">
          <mxGeometry x="-0.2207" y="5" relative="1" as="geometry">
            <mxPoint x="47" y="-9" as="offset" />
          </mxGeometry>
        </mxCell>
        <mxCell id="bU0_iT4Fgn5RnMaW8USa-12" value="" style="endArrow=classic;html=1;rounded=0;fontSize=17;" edge="1" parent="1" source="7baba1c4bc27f4b0-8" target="bU0_iT4Fgn5RnMaW8USa-357">
          <mxGeometry width="50" height="50" relative="1" as="geometry">
            <mxPoint x="715" y="1244" as="sourcePoint" />
            <mxPoint x="1136" y="1244" as="targetPoint" />
            <Array as="points">
              <mxPoint x="926" y="1244" />
              <mxPoint x="1056" y="1244" />
            </Array>
          </mxGeometry>
        </mxCell>
        <mxCell id="bU0_iT4Fgn5RnMaW8USa-13" value="set callback" style="edgeLabel;html=1;align=center;verticalAlign=middle;resizable=0;points=[];fontSize=17;" vertex="1" connectable="0" parent="bU0_iT4Fgn5RnMaW8USa-12">
          <mxGeometry x="-0.2207" y="5" relative="1" as="geometry">
            <mxPoint x="47" y="-9" as="offset" />
          </mxGeometry>
        </mxCell>
        <mxCell id="7baba1c4bc27f4b0-7" value="&lt;font style=&quot;font-size: 17px;&quot;&gt;Timer&lt;/font&gt;" style="shape=umlLifeline;perimeter=lifelinePerimeter;whiteSpace=wrap;html=1;container=1;collapsible=0;recursiveResize=0;outlineConnect=0;rounded=1;shadow=0;comic=0;labelBackgroundColor=none;strokeWidth=1;fontFamily=Verdana;fontSize=12;align=center;" parent="1" vertex="1">
          <mxGeometry x="1595" y="1044" width="160" height="1280" as="geometry" />
        </mxCell>
        <mxCell id="bU0_iT4Fgn5RnMaW8USa-20" value="" style="html=1;points=[];perimeter=orthogonalPerimeter;outlineConnect=0;targetShapes=umlLifeline;portConstraint=eastwest;newEdgeStyle={&quot;edgeStyle&quot;:&quot;elbowEdgeStyle&quot;,&quot;elbow&quot;:&quot;vertical&quot;,&quot;curved&quot;:0,&quot;rounded&quot;:0};fontSize=17;fillColor=#ffe6cc;strokeColor=#d79b00;" vertex="1" parent="7baba1c4bc27f4b0-7">
          <mxGeometry x="75" y="270" width="10" height="140" as="geometry" />
        </mxCell>
        <mxCell id="bU0_iT4Fgn5RnMaW8USa-21" value="" style="html=1;points=[];perimeter=orthogonalPerimeter;outlineConnect=0;targetShapes=umlLifeline;portConstraint=eastwest;newEdgeStyle={&quot;edgeStyle&quot;:&quot;elbowEdgeStyle&quot;,&quot;elbow&quot;:&quot;vertical&quot;,&quot;curved&quot;:0,&quot;rounded&quot;:0};fontSize=17;fillColor=#ffe6cc;strokeColor=#d79b00;" vertex="1" parent="7baba1c4bc27f4b0-7">
          <mxGeometry x="81" y="300" width="10" height="40" as="geometry" />
        </mxCell>
        <mxCell id="bU0_iT4Fgn5RnMaW8USa-22" value="self call" style="html=1;align=left;spacingLeft=2;endArrow=block;rounded=0;edgeStyle=orthogonalEdgeStyle;curved=0;rounded=0;fontSize=17;" edge="1" target="bU0_iT4Fgn5RnMaW8USa-21" parent="7baba1c4bc27f4b0-7">
          <mxGeometry relative="1" as="geometry">
            <mxPoint x="86" y="280" as="sourcePoint" />
            <Array as="points">
              <mxPoint x="116" y="310" />
            </Array>
          </mxGeometry>
        </mxCell>
        <mxCell id="bU0_iT4Fgn5RnMaW8USa-24" value="ISR triggered" style="text;html=1;align=center;verticalAlign=middle;resizable=0;points=[];autosize=1;strokeColor=none;fillColor=none;fontSize=15;" vertex="1" parent="7baba1c4bc27f4b0-7">
          <mxGeometry x="85" y="250" width="110" height="30" as="geometry" />
        </mxCell>
        <mxCell id="bU0_iT4Fgn5RnMaW8USa-26" value="" style="endArrow=classic;html=1;rounded=0;fontSize=15;" edge="1" parent="7baba1c4bc27f4b0-7">
          <mxGeometry width="50" height="50" relative="1" as="geometry">
            <mxPoint x="75" y="380" as="sourcePoint" />
            <mxPoint x="-856.7222222222226" y="380" as="targetPoint" />
          </mxGeometry>
        </mxCell>
        <mxCell id="bU0_iT4Fgn5RnMaW8USa-27" value="&lt;font style=&quot;font-size: 17px;&quot;&gt;Callback&lt;br&gt;&lt;/font&gt;" style="edgeLabel;html=1;align=center;verticalAlign=middle;resizable=0;points=[];fontSize=15;" vertex="1" connectable="0" parent="bU0_iT4Fgn5RnMaW8USa-26">
          <mxGeometry x="-0.0374" relative="1" as="geometry">
            <mxPoint x="1" as="offset" />
          </mxGeometry>
        </mxCell>
        <mxCell id="bU0_iT4Fgn5RnMaW8USa-357" value="" style="html=1;points=[];perimeter=orthogonalPerimeter;outlineConnect=0;targetShapes=umlLifeline;portConstraint=eastwest;newEdgeStyle={&quot;edgeStyle&quot;:&quot;elbowEdgeStyle&quot;,&quot;elbow&quot;:&quot;vertical&quot;,&quot;curved&quot;:0,&quot;rounded&quot;:0};rounded=1;labelBorderColor=default;fontSize=17;fillColor=#ffe6cc;strokeColor=#d79b00;" vertex="1" parent="7baba1c4bc27f4b0-7">
          <mxGeometry x="75" y="178" width="10" height="40" as="geometry" />
        </mxCell>
        <mxCell id="bU0_iT4Fgn5RnMaW8USa-33" value="" style="endArrow=classic;html=1;rounded=0;fontSize=15;dashed=1;dashPattern=8 8;" edge="1" parent="1">
          <mxGeometry width="50" height="50" relative="1" as="geometry">
            <mxPoint x="1513.5" y="1564" as="sourcePoint" />
            <mxPoint x="738.2777777777774" y="1564" as="targetPoint" />
            <Array as="points">
              <mxPoint x="805" y="1564" />
            </Array>
          </mxGeometry>
        </mxCell>
        <mxCell id="bU0_iT4Fgn5RnMaW8USa-34" value="&lt;font style=&quot;font-size: 17px;&quot;&gt;return speed&lt;br&gt;&lt;/font&gt;" style="edgeLabel;html=1;align=center;verticalAlign=middle;resizable=0;points=[];fontSize=15;" vertex="1" connectable="0" parent="bU0_iT4Fgn5RnMaW8USa-33">
          <mxGeometry x="-0.0374" relative="1" as="geometry">
            <mxPoint x="1" as="offset" />
          </mxGeometry>
        </mxCell>
        <mxCell id="bU0_iT4Fgn5RnMaW8USa-31" value="" style="endArrow=classic;html=1;rounded=0;fontSize=17;" edge="1" parent="1">
          <mxGeometry width="50" height="50" relative="1" as="geometry">
            <mxPoint x="738.2777777777774" y="1544" as="sourcePoint" />
            <mxPoint x="1513.5" y="1544" as="targetPoint" />
            <Array as="points">
              <mxPoint x="1003.3199999999999" y="1544" />
            </Array>
          </mxGeometry>
        </mxCell>
        <mxCell id="bU0_iT4Fgn5RnMaW8USa-32" value="read speed sensor" style="edgeLabel;html=1;align=center;verticalAlign=middle;resizable=0;points=[];fontSize=17;" vertex="1" connectable="0" parent="bU0_iT4Fgn5RnMaW8USa-31">
          <mxGeometry x="0.0959" y="4" relative="1" as="geometry">
            <mxPoint as="offset" />
          </mxGeometry>
        </mxCell>
        <mxCell id="bU0_iT4Fgn5RnMaW8USa-42" value="" style="endArrow=classic;html=1;rounded=0;fontSize=15;dashed=1;dashPattern=8 8;" edge="1" parent="1">
          <mxGeometry width="50" height="50" relative="1" as="geometry">
            <mxPoint x="1834.5" y="1624" as="sourcePoint" />
            <mxPoint x="738.2777777777774" y="1624" as="targetPoint" />
            <Array as="points">
              <mxPoint x="1435" y="1624" />
            </Array>
          </mxGeometry>
        </mxCell>
        <mxCell id="bU0_iT4Fgn5RnMaW8USa-43" value="&lt;font style=&quot;font-size: 17px;&quot;&gt;return sending state&lt;br&gt;&lt;/font&gt;" style="edgeLabel;html=1;align=center;verticalAlign=middle;resizable=0;points=[];fontSize=15;" vertex="1" connectable="0" parent="bU0_iT4Fgn5RnMaW8USa-42">
          <mxGeometry x="-0.0374" relative="1" as="geometry">
            <mxPoint x="1" as="offset" />
          </mxGeometry>
        </mxCell>
        <mxCell id="bU0_iT4Fgn5RnMaW8USa-114" value="" style="endArrow=classic;html=1;rounded=0;fontSize=15;dashed=1;dashPattern=8 8;" edge="1" parent="1">
          <mxGeometry width="50" height="50" relative="1" as="geometry">
            <mxPoint x="1215" y="1794" as="sourcePoint" />
            <mxPoint x="738.2777777777774" y="1794" as="targetPoint" />
            <Array as="points">
              <mxPoint x="801" y="1794" />
            </Array>
          </mxGeometry>
        </mxCell>
        <mxCell id="bU0_iT4Fgn5RnMaW8USa-115" value="&lt;font style=&quot;font-size: 17px;&quot;&gt;return door state&lt;br&gt;&lt;/font&gt;" style="edgeLabel;html=1;align=center;verticalAlign=middle;resizable=0;points=[];fontSize=15;" vertex="1" connectable="0" parent="bU0_iT4Fgn5RnMaW8USa-114">
          <mxGeometry x="-0.0374" relative="1" as="geometry">
            <mxPoint x="1" as="offset" />
          </mxGeometry>
        </mxCell>
        <mxCell id="bU0_iT4Fgn5RnMaW8USa-163" value="loop" style="shape=umlFrame;whiteSpace=wrap;html=1;pointerEvents=0;fontSize=17;width=90;height=30;" vertex="1" parent="1">
          <mxGeometry x="435" y="1394" width="1600" height="930" as="geometry" />
        </mxCell>
        <mxCell id="bU0_iT4Fgn5RnMaW8USa-165" value="" style="endArrow=none;html=1;rounded=0;fontSize=17;" edge="1" parent="1" source="7baba1c4bc27f4b0-8" target="bU0_iT4Fgn5RnMaW8USa-167">
          <mxGeometry width="50" height="50" relative="1" as="geometry">
            <mxPoint x="733" y="1124" as="sourcePoint" />
            <mxPoint x="1195" y="1124" as="targetPoint" />
            <Array as="points" />
          </mxGeometry>
        </mxCell>
        <mxCell id="bU0_iT4Fgn5RnMaW8USa-167" value="" style="html=1;points=[];perimeter=orthogonalPerimeter;outlineConnect=0;targetShapes=umlLifeline;portConstraint=eastwest;newEdgeStyle={&quot;edgeStyle&quot;:&quot;elbowEdgeStyle&quot;,&quot;elbow&quot;:&quot;vertical&quot;,&quot;curved&quot;:0,&quot;rounded&quot;:0};rounded=1;labelBorderColor=default;fontSize=17;fillColor=#ffe6cc;strokeColor=#d79b00;" vertex="1" parent="1">
          <mxGeometry x="725" y="1084" width="15" height="1040" as="geometry" />
        </mxCell>
        <mxCell id="bU0_iT4Fgn5RnMaW8USa-112" value="" style="endArrow=classic;html=1;rounded=0;fontSize=17;" edge="1" parent="1" target="bU0_iT4Fgn5RnMaW8USa-169">
          <mxGeometry width="50" height="50" relative="1" as="geometry">
            <mxPoint x="736.9977777777774" y="1844" as="sourcePoint" />
            <mxPoint x="917" y="1844" as="targetPoint" />
          </mxGeometry>
        </mxCell>
        <mxCell id="bU0_iT4Fgn5RnMaW8USa-113" value="send data" style="edgeLabel;html=1;align=center;verticalAlign=middle;resizable=0;points=[];fontSize=17;" vertex="1" connectable="0" parent="bU0_iT4Fgn5RnMaW8USa-112">
          <mxGeometry x="0.366" relative="1" as="geometry">
            <mxPoint x="-27" y="-12" as="offset" />
          </mxGeometry>
        </mxCell>
        <mxCell id="bU0_iT4Fgn5RnMaW8USa-118" value="" style="endArrow=classic;html=1;rounded=0;fontSize=15;dashed=1;dashPattern=8 8;" edge="1" parent="1">
          <mxGeometry width="50" height="50" relative="1" as="geometry">
            <mxPoint x="1837.7200000000003" y="1867" as="sourcePoint" />
            <mxPoint x="734.9977777777774" y="1867" as="targetPoint" />
            <Array as="points">
              <mxPoint x="1437.72" y="1867" />
            </Array>
          </mxGeometry>
        </mxCell>
        <mxCell id="bU0_iT4Fgn5RnMaW8USa-119" value="&lt;font style=&quot;font-size: 17px;&quot;&gt;return sending state&lt;br&gt;&lt;/font&gt;" style="edgeLabel;html=1;align=center;verticalAlign=middle;resizable=0;points=[];fontSize=15;" vertex="1" connectable="0" parent="bU0_iT4Fgn5RnMaW8USa-118">
          <mxGeometry x="-0.0374" relative="1" as="geometry">
            <mxPoint x="1" as="offset" />
          </mxGeometry>
        </mxCell>
        <mxCell id="bU0_iT4Fgn5RnMaW8USa-168" value="" style="html=1;points=[];perimeter=orthogonalPerimeter;outlineConnect=0;targetShapes=umlLifeline;portConstraint=eastwest;newEdgeStyle={&quot;edgeStyle&quot;:&quot;elbowEdgeStyle&quot;,&quot;elbow&quot;:&quot;vertical&quot;,&quot;curved&quot;:0,&quot;rounded&quot;:0};rounded=1;labelBorderColor=default;fontSize=17;fillColor=#ffe6cc;strokeColor=#d79b00;" vertex="1" parent="1">
          <mxGeometry x="907" y="1574" width="10" height="40" as="geometry" />
        </mxCell>
        <mxCell id="bU0_iT4Fgn5RnMaW8USa-107" value="" style="endArrow=classic;html=1;rounded=0;fontSize=17;" edge="1" parent="1" target="bU0_iT4Fgn5RnMaW8USa-183">
          <mxGeometry width="50" height="50" relative="1" as="geometry">
            <mxPoint x="915" y="1842" as="sourcePoint" />
            <mxPoint x="1069" y="1842" as="targetPoint" />
            <Array as="points">
              <mxPoint x="1045" y="1842" />
            </Array>
          </mxGeometry>
        </mxCell>
        <mxCell id="bU0_iT4Fgn5RnMaW8USa-108" value="send CAN" style="edgeLabel;html=1;align=center;verticalAlign=middle;resizable=0;points=[];fontSize=17;" vertex="1" connectable="0" parent="bU0_iT4Fgn5RnMaW8USa-107">
          <mxGeometry x="0.1654" y="6" relative="1" as="geometry">
            <mxPoint x="-14" y="-7" as="offset" />
          </mxGeometry>
        </mxCell>
        <mxCell id="bU0_iT4Fgn5RnMaW8USa-169" value="" style="html=1;points=[];perimeter=orthogonalPerimeter;outlineConnect=0;targetShapes=umlLifeline;portConstraint=eastwest;newEdgeStyle={&quot;edgeStyle&quot;:&quot;elbowEdgeStyle&quot;,&quot;elbow&quot;:&quot;vertical&quot;,&quot;curved&quot;:0,&quot;rounded&quot;:0};rounded=1;labelBorderColor=default;fontSize=17;fillColor=#ffe6cc;strokeColor=#d79b00;" vertex="1" parent="1">
          <mxGeometry x="907" y="1814" width="10" height="40" as="geometry" />
        </mxCell>
        <mxCell id="bU0_iT4Fgn5RnMaW8USa-170" value="" style="html=1;points=[];perimeter=orthogonalPerimeter;outlineConnect=0;targetShapes=umlLifeline;portConstraint=eastwest;newEdgeStyle={&quot;edgeStyle&quot;:&quot;elbowEdgeStyle&quot;,&quot;elbow&quot;:&quot;vertical&quot;,&quot;curved&quot;:0,&quot;rounded&quot;:0};rounded=1;labelBorderColor=default;fontSize=17;fillColor=#ffe6cc;strokeColor=#d79b00;" vertex="1" parent="1">
          <mxGeometry x="905" y="2034" width="12" height="40" as="geometry" />
        </mxCell>
        <mxCell id="bU0_iT4Fgn5RnMaW8USa-174" value="" style="html=1;points=[];perimeter=orthogonalPerimeter;outlineConnect=0;targetShapes=umlLifeline;portConstraint=eastwest;newEdgeStyle={&quot;edgeStyle&quot;:&quot;elbowEdgeStyle&quot;,&quot;elbow&quot;:&quot;vertical&quot;,&quot;curved&quot;:0,&quot;rounded&quot;:0};rounded=1;labelBorderColor=default;fontSize=17;fillColor=#ffe6cc;strokeColor=#d79b00;" vertex="1" parent="1">
          <mxGeometry x="1830" y="1574" width="10" height="80" as="geometry" />
        </mxCell>
        <mxCell id="bU0_iT4Fgn5RnMaW8USa-175" value="" style="html=1;points=[];perimeter=orthogonalPerimeter;outlineConnect=0;targetShapes=umlLifeline;portConstraint=eastwest;newEdgeStyle={&quot;edgeStyle&quot;:&quot;elbowEdgeStyle&quot;,&quot;elbow&quot;:&quot;vertical&quot;,&quot;curved&quot;:0,&quot;rounded&quot;:0};rounded=1;labelBorderColor=default;fontSize=17;fillColor=#ffe6cc;strokeColor=#d79b00;" vertex="1" parent="1">
          <mxGeometry x="1830" y="1814" width="10" height="80" as="geometry" />
        </mxCell>
        <mxCell id="bU0_iT4Fgn5RnMaW8USa-40" value="" style="endArrow=classic;html=1;rounded=0;fontSize=17;" edge="1" parent="1" target="bU0_iT4Fgn5RnMaW8USa-174">
          <mxGeometry width="50" height="50" relative="1" as="geometry">
            <mxPoint x="1075" y="1604" as="sourcePoint" />
            <mxPoint x="1834.5" y="1604" as="targetPoint" />
            <Array as="points">
              <mxPoint x="1250.32" y="1604" />
              <mxPoint x="1380.32" y="1604" />
            </Array>
          </mxGeometry>
        </mxCell>
        <mxCell id="bU0_iT4Fgn5RnMaW8USa-41" value="send data via CAN bus" style="edgeLabel;html=1;align=center;verticalAlign=middle;resizable=0;points=[];fontSize=17;" vertex="1" connectable="0" parent="bU0_iT4Fgn5RnMaW8USa-40">
          <mxGeometry x="-0.2207" y="5" relative="1" as="geometry">
            <mxPoint x="47" y="-9" as="offset" />
          </mxGeometry>
        </mxCell>
        <mxCell id="bU0_iT4Fgn5RnMaW8USa-176" value="" style="html=1;points=[];perimeter=orthogonalPerimeter;outlineConnect=0;targetShapes=umlLifeline;portConstraint=eastwest;newEdgeStyle={&quot;edgeStyle&quot;:&quot;elbowEdgeStyle&quot;,&quot;elbow&quot;:&quot;vertical&quot;,&quot;curved&quot;:0,&quot;rounded&quot;:0};rounded=1;labelBorderColor=default;fontSize=17;fillColor=#ffe6cc;strokeColor=#d79b00;" vertex="1" parent="1">
          <mxGeometry x="1829.67" y="2034" width="10" height="80" as="geometry" />
        </mxCell>
        <mxCell id="bU0_iT4Fgn5RnMaW8USa-183" value="" style="html=1;points=[];perimeter=orthogonalPerimeter;outlineConnect=0;targetShapes=umlLifeline;portConstraint=eastwest;newEdgeStyle={&quot;edgeStyle&quot;:&quot;elbowEdgeStyle&quot;,&quot;elbow&quot;:&quot;vertical&quot;,&quot;curved&quot;:0,&quot;rounded&quot;:0};rounded=1;labelBorderColor=default;fontSize=17;fillColor=#ffe6cc;strokeColor=#d79b00;" vertex="1" parent="1">
          <mxGeometry x="1065" y="1824" width="10" height="40" as="geometry" />
        </mxCell>
        <mxCell id="bU0_iT4Fgn5RnMaW8USa-184" value="" style="html=1;points=[];perimeter=orthogonalPerimeter;outlineConnect=0;targetShapes=umlLifeline;portConstraint=eastwest;newEdgeStyle={&quot;edgeStyle&quot;:&quot;elbowEdgeStyle&quot;,&quot;elbow&quot;:&quot;vertical&quot;,&quot;curved&quot;:0,&quot;rounded&quot;:0};rounded=1;labelBorderColor=default;fontSize=17;fillColor=#ffe6cc;strokeColor=#d79b00;" vertex="1" parent="1">
          <mxGeometry x="1065" y="2044" width="10" height="40" as="geometry" />
        </mxCell>
        <mxCell id="bU0_iT4Fgn5RnMaW8USa-185" value="" style="html=1;points=[];perimeter=orthogonalPerimeter;outlineConnect=0;targetShapes=umlLifeline;portConstraint=eastwest;newEdgeStyle={&quot;edgeStyle&quot;:&quot;elbowEdgeStyle&quot;,&quot;elbow&quot;:&quot;vertical&quot;,&quot;curved&quot;:0,&quot;rounded&quot;:0};rounded=1;labelBorderColor=default;fontSize=17;fillColor=#ffe6cc;strokeColor=#d79b00;" vertex="1" parent="1">
          <mxGeometry x="1208" y="1744" width="10" height="80" as="geometry" />
        </mxCell>
        <mxCell id="bU0_iT4Fgn5RnMaW8USa-186" value="" style="html=1;points=[];perimeter=orthogonalPerimeter;outlineConnect=0;targetShapes=umlLifeline;portConstraint=eastwest;newEdgeStyle={&quot;edgeStyle&quot;:&quot;elbowEdgeStyle&quot;,&quot;elbow&quot;:&quot;vertical&quot;,&quot;curved&quot;:0,&quot;rounded&quot;:0};rounded=1;labelBorderColor=default;fontSize=17;fillColor=#ffe6cc;strokeColor=#d79b00;" vertex="1" parent="1">
          <mxGeometry x="1340" y="1974" width="10" height="80" as="geometry" />
        </mxCell>
        <mxCell id="bU0_iT4Fgn5RnMaW8USa-188" value="Create Instance" style="edgeLabel;html=1;align=center;verticalAlign=middle;resizable=0;points=[];fontSize=17;" vertex="1" connectable="0" parent="1">
          <mxGeometry x="1044.9955555555557" y="1178" as="geometry">
            <mxPoint x="-48" y="-66" as="offset" />
          </mxGeometry>
        </mxCell>
        <mxCell id="bU0_iT4Fgn5RnMaW8USa-189" value="&lt;b&gt;&lt;font style=&quot;font-size: 50px;&quot;&gt;ECU1&lt;/font&gt;&lt;/b&gt;" style="text;html=1;align=center;verticalAlign=middle;resizable=0;points=[];autosize=1;strokeColor=none;fillColor=none;fontSize=17;" vertex="1" parent="1">
          <mxGeometry x="385" y="894" width="160" height="70" as="geometry" />
        </mxCell>
        <mxCell id="bU0_iT4Fgn5RnMaW8USa-355" value="&lt;b&gt;&lt;font style=&quot;font-size: 50px;&quot;&gt;ECU2&lt;br&gt;&lt;/font&gt;&lt;/b&gt;" style="text;html=1;align=center;verticalAlign=middle;resizable=0;points=[];autosize=1;strokeColor=none;fillColor=none;fontSize=17;" vertex="1" parent="1">
          <mxGeometry x="2717" y="295" width="160" height="70" as="geometry" />
        </mxCell>
        <mxCell id="bU0_iT4Fgn5RnMaW8USa-441" value="&lt;font style=&quot;font-size: 17px;&quot;&gt;Middleware&lt;/font&gt;" style="shape=umlLifeline;perimeter=lifelinePerimeter;whiteSpace=wrap;html=1;container=1;collapsible=0;recursiveResize=0;outlineConnect=0;rounded=1;shadow=0;comic=0;labelBackgroundColor=none;strokeWidth=1;fontFamily=Verdana;fontSize=12;align=center;" vertex="1" parent="1">
          <mxGeometry x="3067" y="439" width="138" height="2589" as="geometry" />
        </mxCell>
        <mxCell id="bU0_iT4Fgn5RnMaW8USa-442" value="&lt;span style=&quot;font-size: 17px;&quot;&gt;B&lt;/span&gt;" style="shape=umlLifeline;perimeter=lifelinePerimeter;whiteSpace=wrap;html=1;container=1;collapsible=0;recursiveResize=0;outlineConnect=0;rounded=1;shadow=0;comic=0;labelBackgroundColor=none;strokeWidth=1;fontFamily=Verdana;fontSize=12;align=center;" vertex="1" parent="bU0_iT4Fgn5RnMaW8USa-441">
          <mxGeometry x="610" width="110" height="2587" as="geometry" />
        </mxCell>
        <mxCell id="bU0_iT4Fgn5RnMaW8USa-443" value="" style="html=1;points=[];perimeter=orthogonalPerimeter;outlineConnect=0;targetShapes=umlLifeline;portConstraint=eastwest;newEdgeStyle={&quot;edgeStyle&quot;:&quot;elbowEdgeStyle&quot;,&quot;elbow&quot;:&quot;vertical&quot;,&quot;curved&quot;:0,&quot;rounded&quot;:0};rounded=1;labelBorderColor=default;fontSize=17;fillColor=#ffe6cc;strokeColor=#d79b00;" vertex="1" parent="bU0_iT4Fgn5RnMaW8USa-442">
          <mxGeometry x="50" y="140" width="10" height="40" as="geometry" />
        </mxCell>
        <mxCell id="bU0_iT4Fgn5RnMaW8USa-679" value="" style="html=1;points=[];perimeter=orthogonalPerimeter;outlineConnect=0;targetShapes=umlLifeline;portConstraint=eastwest;newEdgeStyle={&quot;edgeStyle&quot;:&quot;elbowEdgeStyle&quot;,&quot;elbow&quot;:&quot;vertical&quot;,&quot;curved&quot;:0,&quot;rounded&quot;:0};rounded=1;labelBorderColor=default;fontSize=17;fillColor=#ffe6cc;strokeColor=#d79b00;" vertex="1" parent="bU0_iT4Fgn5RnMaW8USa-442">
          <mxGeometry x="50" y="867" width="10" height="64" as="geometry" />
        </mxCell>
        <mxCell id="bU0_iT4Fgn5RnMaW8USa-680" value="" style="html=1;points=[];perimeter=orthogonalPerimeter;outlineConnect=0;targetShapes=umlLifeline;portConstraint=eastwest;newEdgeStyle={&quot;edgeStyle&quot;:&quot;elbowEdgeStyle&quot;,&quot;elbow&quot;:&quot;vertical&quot;,&quot;curved&quot;:0,&quot;rounded&quot;:0};rounded=1;labelBorderColor=default;fontSize=17;fillColor=#ffe6cc;strokeColor=#d79b00;" vertex="1" parent="bU0_iT4Fgn5RnMaW8USa-442">
          <mxGeometry x="50" y="1102" width="10" height="64" as="geometry" />
        </mxCell>
        <mxCell id="bU0_iT4Fgn5RnMaW8USa-445" value="" style="endArrow=classic;html=1;rounded=0;fontSize=17;" edge="1" parent="bU0_iT4Fgn5RnMaW8USa-441" target="bU0_iT4Fgn5RnMaW8USa-520">
          <mxGeometry width="50" height="50" relative="1" as="geometry">
            <mxPoint x="64" y="1707" as="sourcePoint" />
            <mxPoint x="204" y="1707" as="targetPoint" />
            <Array as="points">
              <mxPoint x="180" y="1707" />
            </Array>
          </mxGeometry>
        </mxCell>
        <mxCell id="bU0_iT4Fgn5RnMaW8USa-446" value="receive&amp;nbsp;CAN" style="edgeLabel;html=1;align=center;verticalAlign=middle;resizable=0;points=[];fontSize=17;" vertex="1" connectable="0" parent="bU0_iT4Fgn5RnMaW8USa-445">
          <mxGeometry x="0.1654" y="6" relative="1" as="geometry">
            <mxPoint x="-14" y="-7" as="offset" />
          </mxGeometry>
        </mxCell>
        <mxCell id="bU0_iT4Fgn5RnMaW8USa-447" value="" style="endArrow=classic;html=1;rounded=0;fontSize=17;" edge="1" parent="bU0_iT4Fgn5RnMaW8USa-441" target="bU0_iT4Fgn5RnMaW8USa-518">
          <mxGeometry width="50" height="50" relative="1" as="geometry">
            <mxPoint x="204" y="1707" as="sourcePoint" />
            <mxPoint x="981" y="1707" as="targetPoint" />
            <Array as="points">
              <mxPoint x="399.31999999999994" y="1707" />
              <mxPoint x="529.3199999999999" y="1707" />
            </Array>
          </mxGeometry>
        </mxCell>
        <mxCell id="bU0_iT4Fgn5RnMaW8USa-448" value="receive&amp;nbsp;light switch state from CAN bus" style="edgeLabel;html=1;align=center;verticalAlign=middle;resizable=0;points=[];fontSize=17;" vertex="1" connectable="0" parent="bU0_iT4Fgn5RnMaW8USa-447">
          <mxGeometry x="-0.2207" y="5" relative="1" as="geometry">
            <mxPoint x="101" y="5" as="offset" />
          </mxGeometry>
        </mxCell>
        <mxCell id="bU0_iT4Fgn5RnMaW8USa-449" value="" style="endArrow=classic;html=1;rounded=0;fontSize=17;" edge="1" parent="bU0_iT4Fgn5RnMaW8USa-441" target="bU0_iT4Fgn5RnMaW8USa-513">
          <mxGeometry width="50" height="50" relative="1" as="geometry">
            <mxPoint x="-106" y="1707" as="sourcePoint" />
            <mxPoint x="59" y="1707" as="targetPoint" />
          </mxGeometry>
        </mxCell>
        <mxCell id="bU0_iT4Fgn5RnMaW8USa-450" value="receive data" style="edgeLabel;html=1;align=center;verticalAlign=middle;resizable=0;points=[];fontSize=17;" vertex="1" connectable="0" parent="bU0_iT4Fgn5RnMaW8USa-449">
          <mxGeometry x="0.366" relative="1" as="geometry">
            <mxPoint x="-28" y="-15" as="offset" />
          </mxGeometry>
        </mxCell>
        <mxCell id="bU0_iT4Fgn5RnMaW8USa-457" value="if 5ms passed" style="shape=umlFrame;whiteSpace=wrap;html=1;pointerEvents=0;fontSize=17;width=96;height=50;" vertex="1" parent="bU0_iT4Fgn5RnMaW8USa-441">
          <mxGeometry x="-290" y="430" width="1340" height="2029" as="geometry" />
        </mxCell>
        <mxCell id="bU0_iT4Fgn5RnMaW8USa-458" value="else if 20ms&lt;br&gt;passed" style="text;html=1;align=center;verticalAlign=middle;resizable=0;points=[];autosize=1;strokeColor=none;fillColor=none;fontSize=17;rounded=1;labelBorderColor=default;arcSize=50;" vertex="1" parent="bU0_iT4Fgn5RnMaW8USa-441">
          <mxGeometry x="-290" y="1672" width="110" height="50" as="geometry" />
        </mxCell>
        <mxCell id="bU0_iT4Fgn5RnMaW8USa-459" value="else if 10ms&lt;br&gt;passed" style="text;html=1;align=center;verticalAlign=middle;resizable=0;points=[];autosize=1;strokeColor=none;fillColor=none;fontSize=17;rounded=1;labelBorderColor=default;" vertex="1" parent="bU0_iT4Fgn5RnMaW8USa-441">
          <mxGeometry x="-290" y="660" width="110" height="50" as="geometry" />
        </mxCell>
        <mxCell id="bU0_iT4Fgn5RnMaW8USa-460" value="" style="endArrow=none;dashed=1;html=1;dashPattern=1 3;strokeWidth=2;rounded=0;fontSize=17;entryX=1.002;entryY=0.259;entryDx=0;entryDy=0;entryPerimeter=0;" edge="1" parent="bU0_iT4Fgn5RnMaW8USa-441">
          <mxGeometry width="50" height="50" relative="1" as="geometry">
            <mxPoint x="-290" y="640" as="sourcePoint" />
            <mxPoint x="1052.6799999999994" y="641.6599999999999" as="targetPoint" />
          </mxGeometry>
        </mxCell>
        <mxCell id="bU0_iT4Fgn5RnMaW8USa-461" value="&lt;font style=&quot;font-size: 17px;&quot;&gt;BCM&lt;/font&gt;" style="shape=umlLifeline;perimeter=lifelinePerimeter;whiteSpace=wrap;html=1;container=1;collapsible=0;recursiveResize=0;outlineConnect=0;rounded=1;shadow=0;comic=0;labelBackgroundColor=none;strokeWidth=1;fontFamily=Verdana;fontSize=12;align=center;" vertex="1" parent="1">
          <mxGeometry x="3237" y="435" width="130" height="2591" as="geometry" />
        </mxCell>
        <mxCell id="bU0_iT4Fgn5RnMaW8USa-462" value="" style="endArrow=classic;html=1;rounded=0;fontSize=17;" edge="1" parent="bU0_iT4Fgn5RnMaW8USa-461">
          <mxGeometry width="50" height="50" relative="1" as="geometry">
            <mxPoint x="-94" y="561" as="sourcePoint" />
            <mxPoint x="60" y="561" as="targetPoint" />
            <Array as="points">
              <mxPoint x="22" y="561" />
            </Array>
          </mxGeometry>
        </mxCell>
        <mxCell id="bU0_iT4Fgn5RnMaW8USa-463" value="receive&amp;nbsp;CAN" style="edgeLabel;html=1;align=center;verticalAlign=middle;resizable=0;points=[];fontSize=17;" vertex="1" connectable="0" parent="bU0_iT4Fgn5RnMaW8USa-462">
          <mxGeometry x="0.1654" y="6" relative="1" as="geometry">
            <mxPoint x="-14" y="-7" as="offset" />
          </mxGeometry>
        </mxCell>
        <mxCell id="bU0_iT4Fgn5RnMaW8USa-465" value="" style="html=1;points=[];perimeter=orthogonalPerimeter;outlineConnect=0;targetShapes=umlLifeline;portConstraint=eastwest;newEdgeStyle={&quot;edgeStyle&quot;:&quot;elbowEdgeStyle&quot;,&quot;elbow&quot;:&quot;vertical&quot;,&quot;curved&quot;:0,&quot;rounded&quot;:0};rounded=1;labelBorderColor=default;fontSize=17;fillColor=#ffe6cc;strokeColor=#d79b00;" vertex="1" parent="bU0_iT4Fgn5RnMaW8USa-461">
          <mxGeometry x="60" y="530" width="10" height="40" as="geometry" />
        </mxCell>
        <mxCell id="bU0_iT4Fgn5RnMaW8USa-466" value="&lt;font style=&quot;font-size: 17px;&quot;&gt;RL&lt;/font&gt;" style="shape=umlLifeline;perimeter=lifelinePerimeter;whiteSpace=wrap;html=1;container=1;collapsible=0;recursiveResize=0;outlineConnect=0;rounded=1;shadow=0;comic=0;labelBackgroundColor=none;strokeWidth=1;fontFamily=Verdana;fontSize=12;align=center;" vertex="1" parent="1">
          <mxGeometry x="3395" y="435" width="100" height="2586" as="geometry" />
        </mxCell>
        <mxCell id="bU0_iT4Fgn5RnMaW8USa-467" value="" style="endArrow=classic;html=1;rounded=0;fontSize=17;" edge="1" parent="bU0_iT4Fgn5RnMaW8USa-466" target="bU0_iT4Fgn5RnMaW8USa-515">
          <mxGeometry width="50" height="50" relative="1" as="geometry">
            <mxPoint x="-94" y="699" as="sourcePoint" />
            <mxPoint x="672" y="699" as="targetPoint" />
            <Array as="points">
              <mxPoint x="101.31999999999994" y="699" />
              <mxPoint x="231.31999999999994" y="699" />
            </Array>
          </mxGeometry>
        </mxCell>
        <mxCell id="bU0_iT4Fgn5RnMaW8USa-468" value="receive&amp;nbsp;door state from CAN bus" style="edgeLabel;html=1;align=center;verticalAlign=middle;resizable=0;points=[];fontSize=17;" vertex="1" connectable="0" parent="bU0_iT4Fgn5RnMaW8USa-467">
          <mxGeometry x="-0.2207" y="5" relative="1" as="geometry">
            <mxPoint x="47" y="-9" as="offset" />
          </mxGeometry>
        </mxCell>
        <mxCell id="bU0_iT4Fgn5RnMaW8USa-471" value="" style="html=1;points=[];perimeter=orthogonalPerimeter;outlineConnect=0;targetShapes=umlLifeline;portConstraint=eastwest;newEdgeStyle={&quot;edgeStyle&quot;:&quot;elbowEdgeStyle&quot;,&quot;elbow&quot;:&quot;vertical&quot;,&quot;curved&quot;:0,&quot;rounded&quot;:0};rounded=1;labelBorderColor=default;fontSize=17;fillColor=#ffe6cc;strokeColor=#d79b00;" vertex="1" parent="bU0_iT4Fgn5RnMaW8USa-466">
          <mxGeometry x="45" y="60" width="10" height="40" as="geometry" />
        </mxCell>
        <mxCell id="bU0_iT4Fgn5RnMaW8USa-472" value="&lt;font style=&quot;font-size: 17px;&quot;&gt;LL&lt;/font&gt;" style="shape=umlLifeline;perimeter=lifelinePerimeter;whiteSpace=wrap;html=1;container=1;collapsible=0;recursiveResize=0;outlineConnect=0;rounded=1;shadow=0;comic=0;labelBackgroundColor=none;strokeWidth=1;fontFamily=Verdana;fontSize=12;align=center;" vertex="1" parent="1">
          <mxGeometry x="3527" y="435" width="100" height="2589" as="geometry" />
        </mxCell>
        <mxCell id="bU0_iT4Fgn5RnMaW8USa-473" value="" style="html=1;points=[];perimeter=orthogonalPerimeter;outlineConnect=0;targetShapes=umlLifeline;portConstraint=eastwest;newEdgeStyle={&quot;edgeStyle&quot;:&quot;elbowEdgeStyle&quot;,&quot;elbow&quot;:&quot;vertical&quot;,&quot;curved&quot;:0,&quot;rounded&quot;:0};rounded=1;labelBorderColor=default;fontSize=17;fillColor=#ffe6cc;strokeColor=#d79b00;" vertex="1" parent="bU0_iT4Fgn5RnMaW8USa-472">
          <mxGeometry x="45" y="100" width="10" height="40" as="geometry" />
        </mxCell>
        <mxCell id="bU0_iT4Fgn5RnMaW8USa-673" value="" style="html=1;points=[];perimeter=orthogonalPerimeter;outlineConnect=0;targetShapes=umlLifeline;portConstraint=eastwest;newEdgeStyle={&quot;edgeStyle&quot;:&quot;elbowEdgeStyle&quot;,&quot;elbow&quot;:&quot;vertical&quot;,&quot;curved&quot;:0,&quot;rounded&quot;:0};rounded=1;labelBorderColor=default;fontSize=17;fillColor=#ffe6cc;strokeColor=#d79b00;" vertex="1" parent="bU0_iT4Fgn5RnMaW8USa-472">
          <mxGeometry x="45" y="2225" width="10" height="43" as="geometry" />
        </mxCell>
        <mxCell id="bU0_iT4Fgn5RnMaW8USa-677" value="" style="html=1;points=[];perimeter=orthogonalPerimeter;outlineConnect=0;targetShapes=umlLifeline;portConstraint=eastwest;newEdgeStyle={&quot;edgeStyle&quot;:&quot;elbowEdgeStyle&quot;,&quot;elbow&quot;:&quot;vertical&quot;,&quot;curved&quot;:0,&quot;rounded&quot;:0};rounded=1;labelBorderColor=default;fontSize=17;fillColor=#ffe6cc;strokeColor=#d79b00;" vertex="1" parent="bU0_iT4Fgn5RnMaW8USa-472">
          <mxGeometry x="45" y="1218" width="10" height="62" as="geometry" />
        </mxCell>
        <mxCell id="bU0_iT4Fgn5RnMaW8USa-678" value="" style="html=1;points=[];perimeter=orthogonalPerimeter;outlineConnect=0;targetShapes=umlLifeline;portConstraint=eastwest;newEdgeStyle={&quot;edgeStyle&quot;:&quot;elbowEdgeStyle&quot;,&quot;elbow&quot;:&quot;vertical&quot;,&quot;curved&quot;:0,&quot;rounded&quot;:0};rounded=1;labelBorderColor=default;fontSize=17;fillColor=#ffe6cc;strokeColor=#d79b00;" vertex="1" parent="bU0_iT4Fgn5RnMaW8USa-472">
          <mxGeometry x="45" y="978" width="10" height="64" as="geometry" />
        </mxCell>
        <mxCell id="bU0_iT4Fgn5RnMaW8USa-474" value="&lt;font style=&quot;font-size: 17px;&quot;&gt;APP&lt;/font&gt;" style="shape=umlLifeline;perimeter=lifelinePerimeter;whiteSpace=wrap;html=1;container=1;collapsible=0;recursiveResize=0;outlineConnect=0;rounded=1;shadow=0;comic=0;labelBackgroundColor=none;strokeWidth=1;fontFamily=Verdana;fontSize=12;align=center;" vertex="1" parent="1">
          <mxGeometry x="2887" y="435" width="160" height="2591" as="geometry" />
        </mxCell>
        <mxCell id="bU0_iT4Fgn5RnMaW8USa-475" value="" style="endArrow=classic;html=1;rounded=0;fontSize=17;" edge="1" parent="bU0_iT4Fgn5RnMaW8USa-474" target="bU0_iT4Fgn5RnMaW8USa-509">
          <mxGeometry width="50" height="50" relative="1" as="geometry">
            <mxPoint x="80" y="560" as="sourcePoint" />
            <mxPoint x="260" y="560" as="targetPoint" />
          </mxGeometry>
        </mxCell>
        <mxCell id="bU0_iT4Fgn5RnMaW8USa-476" value="receive data" style="edgeLabel;html=1;align=center;verticalAlign=middle;resizable=0;points=[];fontSize=17;" vertex="1" connectable="0" parent="bU0_iT4Fgn5RnMaW8USa-475">
          <mxGeometry x="0.366" relative="1" as="geometry">
            <mxPoint x="-27" y="-12" as="offset" />
          </mxGeometry>
        </mxCell>
        <mxCell id="bU0_iT4Fgn5RnMaW8USa-477" value="&lt;font style=&quot;font-size: 17px;&quot;&gt;CAN&lt;/font&gt;" style="shape=umlLifeline;perimeter=lifelinePerimeter;whiteSpace=wrap;html=1;container=1;collapsible=0;recursiveResize=0;outlineConnect=0;rounded=1;shadow=0;comic=0;labelBackgroundColor=none;strokeWidth=1;fontFamily=Verdana;fontSize=12;align=center;" vertex="1" parent="1">
          <mxGeometry x="4017" y="435" width="100" height="2585" as="geometry" />
        </mxCell>
        <mxCell id="bU0_iT4Fgn5RnMaW8USa-478" value="&lt;font style=&quot;font-size: 17px;&quot;&gt;DIO&lt;/font&gt;" style="shape=umlLifeline;perimeter=lifelinePerimeter;whiteSpace=wrap;html=1;container=1;collapsible=0;recursiveResize=0;outlineConnect=0;rounded=1;shadow=0;comic=0;labelBackgroundColor=none;strokeWidth=1;fontFamily=Verdana;fontSize=12;align=center;" vertex="1" parent="1">
          <mxGeometry x="4137" y="435" width="100" height="2585" as="geometry" />
        </mxCell>
        <mxCell id="bU0_iT4Fgn5RnMaW8USa-479" value="" style="endArrow=classic;html=1;rounded=0;fontSize=17;startArrow=none;" edge="1" parent="1" source="bU0_iT4Fgn5RnMaW8USa-504" target="bU0_iT4Fgn5RnMaW8USa-466">
          <mxGeometry width="50" height="50" relative="1" as="geometry">
            <mxPoint x="2947" y="525" as="sourcePoint" />
            <mxPoint x="2997" y="475" as="targetPoint" />
            <Array as="points">
              <mxPoint x="3157" y="515" />
              <mxPoint x="3287" y="515" />
            </Array>
          </mxGeometry>
        </mxCell>
        <mxCell id="bU0_iT4Fgn5RnMaW8USa-480" value="" style="endArrow=classic;html=1;rounded=0;fontSize=17;" edge="1" parent="1" target="bU0_iT4Fgn5RnMaW8USa-442">
          <mxGeometry width="50" height="50" relative="1" as="geometry">
            <mxPoint x="2972" y="599" as="sourcePoint" />
            <mxPoint x="3646.5" y="599" as="targetPoint" />
            <Array as="points">
              <mxPoint x="3148" y="599" />
              <mxPoint x="3278" y="599" />
            </Array>
          </mxGeometry>
        </mxCell>
        <mxCell id="bU0_iT4Fgn5RnMaW8USa-481" value="Create Instance" style="edgeLabel;html=1;align=center;verticalAlign=middle;resizable=0;points=[];fontSize=17;" vertex="1" connectable="0" parent="bU0_iT4Fgn5RnMaW8USa-480">
          <mxGeometry x="-0.2207" y="5" relative="1" as="geometry">
            <mxPoint x="47" y="-9" as="offset" />
          </mxGeometry>
        </mxCell>
        <mxCell id="bU0_iT4Fgn5RnMaW8USa-482" value="" style="endArrow=classic;html=1;rounded=0;fontSize=17;" edge="1" parent="1" source="bU0_iT4Fgn5RnMaW8USa-474" target="bU0_iT4Fgn5RnMaW8USa-472">
          <mxGeometry width="50" height="50" relative="1" as="geometry">
            <mxPoint x="2947" y="555" as="sourcePoint" />
            <mxPoint x="3368" y="555" as="targetPoint" />
            <Array as="points">
              <mxPoint x="3158" y="555" />
              <mxPoint x="3288" y="555" />
            </Array>
          </mxGeometry>
        </mxCell>
        <mxCell id="bU0_iT4Fgn5RnMaW8USa-483" value="Create Instance" style="edgeLabel;html=1;align=center;verticalAlign=middle;resizable=0;points=[];fontSize=17;" vertex="1" connectable="0" parent="bU0_iT4Fgn5RnMaW8USa-482">
          <mxGeometry x="-0.2207" y="5" relative="1" as="geometry">
            <mxPoint x="47" y="-9" as="offset" />
          </mxGeometry>
        </mxCell>
        <mxCell id="bU0_iT4Fgn5RnMaW8USa-484" value="" style="endArrow=classic;html=1;rounded=0;fontSize=17;" edge="1" parent="1" source="bU0_iT4Fgn5RnMaW8USa-474" target="bU0_iT4Fgn5RnMaW8USa-493">
          <mxGeometry width="50" height="50" relative="1" as="geometry">
            <mxPoint x="2947" y="635" as="sourcePoint" />
            <mxPoint x="3368" y="635" as="targetPoint" />
            <Array as="points">
              <mxPoint x="3158" y="635" />
              <mxPoint x="3288" y="635" />
            </Array>
          </mxGeometry>
        </mxCell>
        <mxCell id="bU0_iT4Fgn5RnMaW8USa-485" value="set callback" style="edgeLabel;html=1;align=center;verticalAlign=middle;resizable=0;points=[];fontSize=17;" vertex="1" connectable="0" parent="bU0_iT4Fgn5RnMaW8USa-484">
          <mxGeometry x="-0.2207" y="5" relative="1" as="geometry">
            <mxPoint x="47" y="-9" as="offset" />
          </mxGeometry>
        </mxCell>
        <mxCell id="bU0_iT4Fgn5RnMaW8USa-486" value="&lt;font style=&quot;font-size: 17px;&quot;&gt;Timer&lt;/font&gt;" style="shape=umlLifeline;perimeter=lifelinePerimeter;whiteSpace=wrap;html=1;container=1;collapsible=0;recursiveResize=0;outlineConnect=0;rounded=1;shadow=0;comic=0;labelBackgroundColor=none;strokeWidth=1;fontFamily=Verdana;fontSize=12;align=center;" vertex="1" parent="1">
          <mxGeometry x="3827" y="435" width="160" height="2586" as="geometry" />
        </mxCell>
        <mxCell id="bU0_iT4Fgn5RnMaW8USa-487" value="" style="html=1;points=[];perimeter=orthogonalPerimeter;outlineConnect=0;targetShapes=umlLifeline;portConstraint=eastwest;newEdgeStyle={&quot;edgeStyle&quot;:&quot;elbowEdgeStyle&quot;,&quot;elbow&quot;:&quot;vertical&quot;,&quot;curved&quot;:0,&quot;rounded&quot;:0};fontSize=17;fillColor=#ffe6cc;strokeColor=#d79b00;" vertex="1" parent="bU0_iT4Fgn5RnMaW8USa-486">
          <mxGeometry x="75" y="270" width="10" height="140" as="geometry" />
        </mxCell>
        <mxCell id="bU0_iT4Fgn5RnMaW8USa-488" value="" style="html=1;points=[];perimeter=orthogonalPerimeter;outlineConnect=0;targetShapes=umlLifeline;portConstraint=eastwest;newEdgeStyle={&quot;edgeStyle&quot;:&quot;elbowEdgeStyle&quot;,&quot;elbow&quot;:&quot;vertical&quot;,&quot;curved&quot;:0,&quot;rounded&quot;:0};fontSize=17;fillColor=#ffe6cc;strokeColor=#d79b00;" vertex="1" parent="bU0_iT4Fgn5RnMaW8USa-486">
          <mxGeometry x="81" y="300" width="10" height="40" as="geometry" />
        </mxCell>
        <mxCell id="bU0_iT4Fgn5RnMaW8USa-489" value="self call" style="html=1;align=left;spacingLeft=2;endArrow=block;rounded=0;edgeStyle=orthogonalEdgeStyle;curved=0;rounded=0;fontSize=17;" edge="1" parent="bU0_iT4Fgn5RnMaW8USa-486" target="bU0_iT4Fgn5RnMaW8USa-488">
          <mxGeometry relative="1" as="geometry">
            <mxPoint x="86" y="280" as="sourcePoint" />
            <Array as="points">
              <mxPoint x="116" y="310" />
            </Array>
          </mxGeometry>
        </mxCell>
        <mxCell id="bU0_iT4Fgn5RnMaW8USa-490" value="ISR triggered" style="text;html=1;align=center;verticalAlign=middle;resizable=0;points=[];autosize=1;strokeColor=none;fillColor=none;fontSize=15;" vertex="1" parent="bU0_iT4Fgn5RnMaW8USa-486">
          <mxGeometry x="85" y="250" width="110" height="30" as="geometry" />
        </mxCell>
        <mxCell id="bU0_iT4Fgn5RnMaW8USa-491" value="" style="endArrow=classic;html=1;rounded=0;fontSize=15;" edge="1" parent="bU0_iT4Fgn5RnMaW8USa-486">
          <mxGeometry width="50" height="50" relative="1" as="geometry">
            <mxPoint x="75" y="380" as="sourcePoint" />
            <mxPoint x="-856.7222222222226" y="380" as="targetPoint" />
          </mxGeometry>
        </mxCell>
        <mxCell id="bU0_iT4Fgn5RnMaW8USa-492" value="&lt;font style=&quot;font-size: 17px;&quot;&gt;Callback&lt;br&gt;&lt;/font&gt;" style="edgeLabel;html=1;align=center;verticalAlign=middle;resizable=0;points=[];fontSize=15;" vertex="1" connectable="0" parent="bU0_iT4Fgn5RnMaW8USa-491">
          <mxGeometry x="-0.0374" relative="1" as="geometry">
            <mxPoint x="1" as="offset" />
          </mxGeometry>
        </mxCell>
        <mxCell id="bU0_iT4Fgn5RnMaW8USa-493" value="" style="html=1;points=[];perimeter=orthogonalPerimeter;outlineConnect=0;targetShapes=umlLifeline;portConstraint=eastwest;newEdgeStyle={&quot;edgeStyle&quot;:&quot;elbowEdgeStyle&quot;,&quot;elbow&quot;:&quot;vertical&quot;,&quot;curved&quot;:0,&quot;rounded&quot;:0};rounded=1;labelBorderColor=default;fontSize=17;fillColor=#ffe6cc;strokeColor=#d79b00;" vertex="1" parent="bU0_iT4Fgn5RnMaW8USa-486">
          <mxGeometry x="75" y="178" width="10" height="40" as="geometry" />
        </mxCell>
        <mxCell id="bU0_iT4Fgn5RnMaW8USa-498" value="" style="endArrow=classic;html=1;rounded=0;fontSize=15;dashed=1;dashPattern=8 8;" edge="1" parent="1">
          <mxGeometry width="50" height="50" relative="1" as="geometry">
            <mxPoint x="4066.5" y="1015" as="sourcePoint" />
            <mxPoint x="2970.2777777777774" y="1015" as="targetPoint" />
            <Array as="points">
              <mxPoint x="3667" y="1015" />
            </Array>
          </mxGeometry>
        </mxCell>
        <mxCell id="bU0_iT4Fgn5RnMaW8USa-499" value="&lt;font style=&quot;font-size: 17px;&quot;&gt;return receiving state and data received&lt;br&gt;&lt;/font&gt;" style="edgeLabel;html=1;align=center;verticalAlign=middle;resizable=0;points=[];fontSize=15;" vertex="1" connectable="0" parent="bU0_iT4Fgn5RnMaW8USa-498">
          <mxGeometry x="-0.0374" relative="1" as="geometry">
            <mxPoint x="1" as="offset" />
          </mxGeometry>
        </mxCell>
        <mxCell id="bU0_iT4Fgn5RnMaW8USa-502" value="loop" style="shape=umlFrame;whiteSpace=wrap;html=1;pointerEvents=0;fontSize=17;width=90;height=30;" vertex="1" parent="1">
          <mxGeometry x="2667" y="785" width="1600" height="2240" as="geometry" />
        </mxCell>
        <mxCell id="bU0_iT4Fgn5RnMaW8USa-503" value="" style="endArrow=none;html=1;rounded=0;fontSize=17;" edge="1" parent="1">
          <mxGeometry width="50" height="50" relative="1" as="geometry">
            <mxPoint x="2965.681818181818" y="1136" as="sourcePoint" />
            <mxPoint x="2967" y="1136" as="targetPoint" />
            <Array as="points" />
          </mxGeometry>
        </mxCell>
        <mxCell id="bU0_iT4Fgn5RnMaW8USa-504" value="" style="html=1;points=[];perimeter=orthogonalPerimeter;outlineConnect=0;targetShapes=umlLifeline;portConstraint=eastwest;newEdgeStyle={&quot;edgeStyle&quot;:&quot;elbowEdgeStyle&quot;,&quot;elbow&quot;:&quot;vertical&quot;,&quot;curved&quot;:0,&quot;rounded&quot;:0};rounded=1;labelBorderColor=default;fontSize=17;fillColor=#ffe6cc;strokeColor=#d79b00;" vertex="1" parent="1">
          <mxGeometry x="2957" y="475" width="15" height="2388" as="geometry" />
        </mxCell>
        <mxCell id="bU0_iT4Fgn5RnMaW8USa-505" value="" style="endArrow=classic;html=1;rounded=0;fontSize=17;" edge="1" parent="1">
          <mxGeometry width="50" height="50" relative="1" as="geometry">
            <mxPoint x="2969.9977777777776" y="1136" as="sourcePoint" />
            <mxPoint x="3140" y="1136" as="targetPoint" />
          </mxGeometry>
        </mxCell>
        <mxCell id="bU0_iT4Fgn5RnMaW8USa-507" value="" style="endArrow=classic;html=1;rounded=0;fontSize=15;dashed=1;dashPattern=8 8;" edge="1" parent="1">
          <mxGeometry width="50" height="50" relative="1" as="geometry">
            <mxPoint x="4069.7200000000003" y="1159" as="sourcePoint" />
            <mxPoint x="2966.9977777777776" y="1159" as="targetPoint" />
            <Array as="points">
              <mxPoint x="3669.7200000000003" y="1159" />
            </Array>
          </mxGeometry>
        </mxCell>
        <mxCell id="bU0_iT4Fgn5RnMaW8USa-508" value="&lt;font style=&quot;font-size: 17px;&quot;&gt;return receiving state and data received&lt;br&gt;&lt;/font&gt;" style="edgeLabel;html=1;align=center;verticalAlign=middle;resizable=0;points=[];fontSize=15;" vertex="1" connectable="0" parent="bU0_iT4Fgn5RnMaW8USa-507">
          <mxGeometry x="-0.0374" relative="1" as="geometry">
            <mxPoint x="1" as="offset" />
          </mxGeometry>
        </mxCell>
        <mxCell id="bU0_iT4Fgn5RnMaW8USa-509" value="" style="html=1;points=[];perimeter=orthogonalPerimeter;outlineConnect=0;targetShapes=umlLifeline;portConstraint=eastwest;newEdgeStyle={&quot;edgeStyle&quot;:&quot;elbowEdgeStyle&quot;,&quot;elbow&quot;:&quot;vertical&quot;,&quot;curved&quot;:0,&quot;rounded&quot;:0};rounded=1;labelBorderColor=default;fontSize=17;fillColor=#ffe6cc;strokeColor=#d79b00;" vertex="1" parent="1">
          <mxGeometry x="3139" y="965" width="10" height="40" as="geometry" />
        </mxCell>
        <mxCell id="bU0_iT4Fgn5RnMaW8USa-510" value="" style="endArrow=classic;html=1;rounded=0;fontSize=17;" edge="1" parent="1" target="bU0_iT4Fgn5RnMaW8USa-519">
          <mxGeometry width="50" height="50" relative="1" as="geometry">
            <mxPoint x="3147" y="1134" as="sourcePoint" />
            <mxPoint x="3301" y="1134" as="targetPoint" />
            <Array as="points">
              <mxPoint x="3277" y="1134" />
            </Array>
          </mxGeometry>
        </mxCell>
        <mxCell id="bU0_iT4Fgn5RnMaW8USa-511" value="receive&amp;nbsp;CAN" style="edgeLabel;html=1;align=center;verticalAlign=middle;resizable=0;points=[];fontSize=17;" vertex="1" connectable="0" parent="bU0_iT4Fgn5RnMaW8USa-510">
          <mxGeometry x="0.1654" y="6" relative="1" as="geometry">
            <mxPoint x="-14" y="-7" as="offset" />
          </mxGeometry>
        </mxCell>
        <mxCell id="bU0_iT4Fgn5RnMaW8USa-512" value="" style="html=1;points=[];perimeter=orthogonalPerimeter;outlineConnect=0;targetShapes=umlLifeline;portConstraint=eastwest;newEdgeStyle={&quot;edgeStyle&quot;:&quot;elbowEdgeStyle&quot;,&quot;elbow&quot;:&quot;vertical&quot;,&quot;curved&quot;:0,&quot;rounded&quot;:0};rounded=1;labelBorderColor=default;fontSize=17;fillColor=#ffe6cc;strokeColor=#d79b00;" vertex="1" parent="1">
          <mxGeometry x="3139" y="1106" width="10" height="40" as="geometry" />
        </mxCell>
        <mxCell id="bU0_iT4Fgn5RnMaW8USa-513" value="" style="html=1;points=[];perimeter=orthogonalPerimeter;outlineConnect=0;targetShapes=umlLifeline;portConstraint=eastwest;newEdgeStyle={&quot;edgeStyle&quot;:&quot;elbowEdgeStyle&quot;,&quot;elbow&quot;:&quot;vertical&quot;,&quot;curved&quot;:0,&quot;rounded&quot;:0};rounded=1;labelBorderColor=default;fontSize=17;fillColor=#ffe6cc;strokeColor=#d79b00;" vertex="1" parent="1">
          <mxGeometry x="3135" y="2121" width="12" height="40" as="geometry" />
        </mxCell>
        <mxCell id="bU0_iT4Fgn5RnMaW8USa-514" value="" style="html=1;points=[];perimeter=orthogonalPerimeter;outlineConnect=0;targetShapes=umlLifeline;portConstraint=eastwest;newEdgeStyle={&quot;edgeStyle&quot;:&quot;elbowEdgeStyle&quot;,&quot;elbow&quot;:&quot;vertical&quot;,&quot;curved&quot;:0,&quot;rounded&quot;:0};rounded=1;labelBorderColor=default;fontSize=17;fillColor=#ffe6cc;strokeColor=#d79b00;" vertex="1" parent="1">
          <mxGeometry x="4062" y="965" width="10" height="80" as="geometry" />
        </mxCell>
        <mxCell id="bU0_iT4Fgn5RnMaW8USa-515" value="" style="html=1;points=[];perimeter=orthogonalPerimeter;outlineConnect=0;targetShapes=umlLifeline;portConstraint=eastwest;newEdgeStyle={&quot;edgeStyle&quot;:&quot;elbowEdgeStyle&quot;,&quot;elbow&quot;:&quot;vertical&quot;,&quot;curved&quot;:0,&quot;rounded&quot;:0};rounded=1;labelBorderColor=default;fontSize=17;fillColor=#ffe6cc;strokeColor=#d79b00;" vertex="1" parent="1">
          <mxGeometry x="4062" y="1106" width="10" height="80" as="geometry" />
        </mxCell>
        <mxCell id="bU0_iT4Fgn5RnMaW8USa-516" value="" style="endArrow=classic;html=1;rounded=0;fontSize=17;" edge="1" parent="1" target="bU0_iT4Fgn5RnMaW8USa-514">
          <mxGeometry width="50" height="50" relative="1" as="geometry">
            <mxPoint x="3307" y="995" as="sourcePoint" />
            <mxPoint x="4066.5" y="995" as="targetPoint" />
            <Array as="points">
              <mxPoint x="3482.3199999999997" y="995" />
              <mxPoint x="3612.3199999999997" y="995" />
            </Array>
          </mxGeometry>
        </mxCell>
        <mxCell id="bU0_iT4Fgn5RnMaW8USa-517" value="receive&amp;nbsp;speed from CAN bus" style="edgeLabel;html=1;align=center;verticalAlign=middle;resizable=0;points=[];fontSize=17;" vertex="1" connectable="0" parent="bU0_iT4Fgn5RnMaW8USa-516">
          <mxGeometry x="-0.2207" y="5" relative="1" as="geometry">
            <mxPoint x="47" y="-9" as="offset" />
          </mxGeometry>
        </mxCell>
        <mxCell id="bU0_iT4Fgn5RnMaW8USa-518" value="" style="html=1;points=[];perimeter=orthogonalPerimeter;outlineConnect=0;targetShapes=umlLifeline;portConstraint=eastwest;newEdgeStyle={&quot;edgeStyle&quot;:&quot;elbowEdgeStyle&quot;,&quot;elbow&quot;:&quot;vertical&quot;,&quot;curved&quot;:0,&quot;rounded&quot;:0};rounded=1;labelBorderColor=default;fontSize=17;fillColor=#ffe6cc;strokeColor=#d79b00;" vertex="1" parent="1">
          <mxGeometry x="4059.67" y="2112" width="10" height="80" as="geometry" />
        </mxCell>
        <mxCell id="bU0_iT4Fgn5RnMaW8USa-519" value="" style="html=1;points=[];perimeter=orthogonalPerimeter;outlineConnect=0;targetShapes=umlLifeline;portConstraint=eastwest;newEdgeStyle={&quot;edgeStyle&quot;:&quot;elbowEdgeStyle&quot;,&quot;elbow&quot;:&quot;vertical&quot;,&quot;curved&quot;:0,&quot;rounded&quot;:0};rounded=1;labelBorderColor=default;fontSize=17;fillColor=#ffe6cc;strokeColor=#d79b00;" vertex="1" parent="1">
          <mxGeometry x="3297" y="1110" width="10" height="40" as="geometry" />
        </mxCell>
        <mxCell id="bU0_iT4Fgn5RnMaW8USa-520" value="" style="html=1;points=[];perimeter=orthogonalPerimeter;outlineConnect=0;targetShapes=umlLifeline;portConstraint=eastwest;newEdgeStyle={&quot;edgeStyle&quot;:&quot;elbowEdgeStyle&quot;,&quot;elbow&quot;:&quot;vertical&quot;,&quot;curved&quot;:0,&quot;rounded&quot;:0};rounded=1;labelBorderColor=default;fontSize=17;fillColor=#ffe6cc;strokeColor=#d79b00;" vertex="1" parent="1">
          <mxGeometry x="3295" y="2121" width="10" height="40" as="geometry" />
        </mxCell>
        <mxCell id="bU0_iT4Fgn5RnMaW8USa-523" value="Create Instance" style="edgeLabel;html=1;align=center;verticalAlign=middle;resizable=0;points=[];fontSize=17;" vertex="1" connectable="0" parent="1">
          <mxGeometry x="3276.9955555555553" y="569" as="geometry">
            <mxPoint x="-48" y="-66" as="offset" />
          </mxGeometry>
        </mxCell>
        <mxCell id="bU0_iT4Fgn5RnMaW8USa-455" value="" style="endArrow=classic;html=1;rounded=0;fontSize=15;dashed=1;dashPattern=8 8;" edge="1" parent="1">
          <mxGeometry width="50" height="50" relative="1" as="geometry">
            <mxPoint x="4054" y="2173" as="sourcePoint" />
            <mxPoint x="2972" y="2173" as="targetPoint" />
            <Array as="points">
              <mxPoint x="3666" y="2173" />
            </Array>
          </mxGeometry>
        </mxCell>
        <mxCell id="bU0_iT4Fgn5RnMaW8USa-456" value="&lt;font style=&quot;font-size: 17px;&quot;&gt;return receiving state and data received&lt;br&gt;&lt;/font&gt;" style="edgeLabel;html=1;align=center;verticalAlign=middle;resizable=0;points=[];fontSize=15;" vertex="1" connectable="0" parent="bU0_iT4Fgn5RnMaW8USa-455">
          <mxGeometry x="-0.0374" relative="1" as="geometry">
            <mxPoint x="1" as="offset" />
          </mxGeometry>
        </mxCell>
        <mxCell id="bU0_iT4Fgn5RnMaW8USa-524" value="if door is&lt;br&gt;opened" style="shape=umlFrame;whiteSpace=wrap;html=1;pointerEvents=0;fontSize=17;width=96;height=50;" vertex="1" parent="1">
          <mxGeometry x="2858" y="1197" width="1190" height="885" as="geometry" />
        </mxCell>
        <mxCell id="bU0_iT4Fgn5RnMaW8USa-525" value="if car is moving" style="shape=umlFrame;whiteSpace=wrap;html=1;pointerEvents=0;fontSize=17;width=129;height=20;" vertex="1" parent="1">
          <mxGeometry x="2887" y="1270" width="1115" height="481" as="geometry" />
        </mxCell>
        <mxCell id="bU0_iT4Fgn5RnMaW8USa-464" value="" style="endArrow=none;dashed=1;html=1;dashPattern=1 3;strokeWidth=2;rounded=0;fontSize=17;entryX=1.002;entryY=0.259;entryDx=0;entryDy=0;entryPerimeter=0;" edge="1" parent="1">
          <mxGeometry width="50" height="50" relative="1" as="geometry">
            <mxPoint x="2792" y="2099" as="sourcePoint" />
            <mxPoint x="4134.679999999999" y="2100.66" as="targetPoint" />
          </mxGeometry>
        </mxCell>
        <mxCell id="bU0_iT4Fgn5RnMaW8USa-527" value="" style="endArrow=classic;html=1;rounded=0;fontSize=50;" edge="1" parent="1">
          <mxGeometry width="50" height="50" relative="1" as="geometry">
            <mxPoint x="2978" y="1318" as="sourcePoint" />
            <mxPoint x="3727" y="1318" as="targetPoint" />
          </mxGeometry>
        </mxCell>
        <mxCell id="bU0_iT4Fgn5RnMaW8USa-528" value="" style="endArrow=classic;html=1;rounded=0;fontSize=50;dashed=1;dashPattern=8 8;" edge="1" parent="1" target="bU0_iT4Fgn5RnMaW8USa-474">
          <mxGeometry width="50" height="50" relative="1" as="geometry">
            <mxPoint x="3729" y="1343" as="sourcePoint" />
            <mxPoint x="3794" y="1293" as="targetPoint" />
          </mxGeometry>
        </mxCell>
        <mxCell id="bU0_iT4Fgn5RnMaW8USa-529" value="" style="endArrow=classic;html=1;rounded=0;fontSize=50;" edge="1" parent="1" target="bU0_iT4Fgn5RnMaW8USa-466">
          <mxGeometry width="50" height="50" relative="1" as="geometry">
            <mxPoint x="2974" y="1380" as="sourcePoint" />
            <mxPoint x="3024" y="1330" as="targetPoint" />
          </mxGeometry>
        </mxCell>
        <mxCell id="bU0_iT4Fgn5RnMaW8USa-530" value="" style="endArrow=classic;html=1;rounded=0;fontSize=50;" edge="1" parent="1" target="bU0_iT4Fgn5RnMaW8USa-472">
          <mxGeometry width="50" height="50" relative="1" as="geometry">
            <mxPoint x="2962" y="1444" as="sourcePoint" />
            <mxPoint x="3012" y="1394" as="targetPoint" />
          </mxGeometry>
        </mxCell>
        <mxCell id="bU0_iT4Fgn5RnMaW8USa-531" value="" style="endArrow=classic;html=1;rounded=0;fontSize=50;dashed=1;dashPattern=8 8;" edge="1" parent="1" source="bU0_iT4Fgn5RnMaW8USa-466">
          <mxGeometry width="50" height="50" relative="1" as="geometry">
            <mxPoint x="3304" y="1396" as="sourcePoint" />
            <mxPoint x="2972" y="1396.25" as="targetPoint" />
          </mxGeometry>
        </mxCell>
        <mxCell id="bU0_iT4Fgn5RnMaW8USa-532" value="" style="endArrow=classic;html=1;rounded=0;fontSize=50;dashed=1;dashPattern=8 8;" edge="1" parent="1">
          <mxGeometry width="50" height="50" relative="1" as="geometry">
            <mxPoint x="3578" y="1460" as="sourcePoint" />
            <mxPoint x="2965" y="1460" as="targetPoint" />
          </mxGeometry>
        </mxCell>
        <mxCell id="bU0_iT4Fgn5RnMaW8USa-534" value="Buzzer on" style="edgeLabel;html=1;align=center;verticalAlign=middle;resizable=0;points=[];fontSize=17;" vertex="1" connectable="0" parent="1">
          <mxGeometry x="3376" y="1316" as="geometry" />
        </mxCell>
        <mxCell id="bU0_iT4Fgn5RnMaW8USa-536" value="return action state" style="edgeLabel;html=1;align=center;verticalAlign=middle;resizable=0;points=[];fontSize=17;" vertex="1" connectable="0" parent="1">
          <mxGeometry x="3381" y="1342" as="geometry" />
        </mxCell>
        <mxCell id="bU0_iT4Fgn5RnMaW8USa-537" value="RL off" style="edgeLabel;html=1;align=center;verticalAlign=middle;resizable=0;points=[];fontSize=17;" vertex="1" connectable="0" parent="1">
          <mxGeometry x="3489" y="1316" as="geometry">
            <mxPoint x="-287" y="64" as="offset" />
          </mxGeometry>
        </mxCell>
        <mxCell id="bU0_iT4Fgn5RnMaW8USa-538" value="LL off" style="edgeLabel;html=1;align=center;verticalAlign=middle;resizable=0;points=[];fontSize=17;" vertex="1" connectable="0" parent="1">
          <mxGeometry x="3587" y="1380" as="geometry">
            <mxPoint x="-287" y="64" as="offset" />
          </mxGeometry>
        </mxCell>
        <mxCell id="bU0_iT4Fgn5RnMaW8USa-539" value="return action state" style="edgeLabel;html=1;align=center;verticalAlign=middle;resizable=0;points=[];fontSize=17;" vertex="1" connectable="0" parent="1">
          <mxGeometry x="3215" y="1397.5" as="geometry" />
        </mxCell>
        <mxCell id="bU0_iT4Fgn5RnMaW8USa-540" value="return action state" style="edgeLabel;html=1;align=center;verticalAlign=middle;resizable=0;points=[];fontSize=17;" vertex="1" connectable="0" parent="1">
          <mxGeometry x="3271" y="1460" as="geometry" />
        </mxCell>
        <mxCell id="bU0_iT4Fgn5RnMaW8USa-555" value="" style="endArrow=none;dashed=1;html=1;dashPattern=1 3;strokeWidth=2;rounded=0;fontSize=17;entryX=1;entryY=0.492;entryDx=0;entryDy=0;entryPerimeter=0;" edge="1" parent="1" target="bU0_iT4Fgn5RnMaW8USa-525">
          <mxGeometry width="50" height="50" relative="1" as="geometry">
            <mxPoint x="2885" y="1498" as="sourcePoint" />
            <mxPoint x="2935" y="1448" as="targetPoint" />
          </mxGeometry>
        </mxCell>
        <mxCell id="bU0_iT4Fgn5RnMaW8USa-556" value="else if car is stopped" style="text;html=1;align=center;verticalAlign=middle;resizable=0;points=[];autosize=1;strokeColor=none;fillColor=none;fontSize=17;fontStyle=0;labelBorderColor=default;" vertex="1" parent="1">
          <mxGeometry x="2880.5" y="1502" width="173" height="32" as="geometry" />
        </mxCell>
        <mxCell id="bU0_iT4Fgn5RnMaW8USa-557" value="" style="endArrow=classic;html=1;rounded=0;fontSize=50;" edge="1" parent="1">
          <mxGeometry width="50" height="50" relative="1" as="geometry">
            <mxPoint x="2973" y="1550" as="sourcePoint" />
            <mxPoint x="3730" y="1550" as="targetPoint" />
          </mxGeometry>
        </mxCell>
        <mxCell id="bU0_iT4Fgn5RnMaW8USa-558" value="" style="endArrow=classic;html=1;rounded=0;fontSize=50;dashed=1;dashPattern=8 8;" edge="1" parent="1">
          <mxGeometry width="50" height="50" relative="1" as="geometry">
            <mxPoint x="3720" y="1575" as="sourcePoint" />
            <mxPoint x="2975" y="1575" as="targetPoint" />
          </mxGeometry>
        </mxCell>
        <mxCell id="bU0_iT4Fgn5RnMaW8USa-559" value="" style="endArrow=classic;html=1;rounded=0;fontSize=50;" edge="1" parent="1" target="bU0_iT4Fgn5RnMaW8USa-667">
          <mxGeometry width="50" height="50" relative="1" as="geometry">
            <mxPoint x="2976" y="1612.17" as="sourcePoint" />
            <mxPoint x="3447" y="1612.17" as="targetPoint" />
          </mxGeometry>
        </mxCell>
        <mxCell id="bU0_iT4Fgn5RnMaW8USa-560" value="" style="endArrow=classic;html=1;rounded=0;fontSize=50;" edge="1" parent="1">
          <mxGeometry width="50" height="50" relative="1" as="geometry">
            <mxPoint x="2964" y="1676.17" as="sourcePoint" />
            <mxPoint x="3578" y="1676.17" as="targetPoint" />
          </mxGeometry>
        </mxCell>
        <mxCell id="bU0_iT4Fgn5RnMaW8USa-561" value="" style="endArrow=classic;html=1;rounded=0;fontSize=50;dashed=1;dashPattern=8 8;startArrow=none;" edge="1" parent="1" source="bU0_iT4Fgn5RnMaW8USa-667">
          <mxGeometry width="50" height="50" relative="1" as="geometry">
            <mxPoint x="3447" y="1628.17" as="sourcePoint" />
            <mxPoint x="2974" y="1628.42" as="targetPoint" />
          </mxGeometry>
        </mxCell>
        <mxCell id="bU0_iT4Fgn5RnMaW8USa-562" value="" style="endArrow=classic;html=1;rounded=0;fontSize=50;dashed=1;dashPattern=8 8;" edge="1" parent="1">
          <mxGeometry width="50" height="50" relative="1" as="geometry">
            <mxPoint x="3580" y="1692.17" as="sourcePoint" />
            <mxPoint x="2967" y="1692.17" as="targetPoint" />
          </mxGeometry>
        </mxCell>
        <mxCell id="bU0_iT4Fgn5RnMaW8USa-563" value="Buzzer off" style="edgeLabel;html=1;align=center;verticalAlign=middle;resizable=0;points=[];fontSize=17;" vertex="1" connectable="0" parent="1">
          <mxGeometry x="3378" y="1548.17" as="geometry" />
        </mxCell>
        <mxCell id="bU0_iT4Fgn5RnMaW8USa-564" value="return action state" style="edgeLabel;html=1;align=center;verticalAlign=middle;resizable=0;points=[];fontSize=17;" vertex="1" connectable="0" parent="1">
          <mxGeometry x="3383" y="1574.17" as="geometry" />
        </mxCell>
        <mxCell id="bU0_iT4Fgn5RnMaW8USa-565" value="RL on" style="edgeLabel;html=1;align=center;verticalAlign=middle;resizable=0;points=[];fontSize=17;" vertex="1" connectable="0" parent="1">
          <mxGeometry x="3491" y="1548.17" as="geometry">
            <mxPoint x="-287" y="64" as="offset" />
          </mxGeometry>
        </mxCell>
        <mxCell id="bU0_iT4Fgn5RnMaW8USa-566" value="LL on" style="edgeLabel;html=1;align=center;verticalAlign=middle;resizable=0;points=[];fontSize=17;" vertex="1" connectable="0" parent="1">
          <mxGeometry x="3589" y="1612.17" as="geometry">
            <mxPoint x="-287" y="64" as="offset" />
          </mxGeometry>
        </mxCell>
        <mxCell id="bU0_iT4Fgn5RnMaW8USa-567" value="return action state" style="edgeLabel;html=1;align=center;verticalAlign=middle;resizable=0;points=[];fontSize=17;" vertex="1" connectable="0" parent="1">
          <mxGeometry x="3217" y="1629.67" as="geometry" />
        </mxCell>
        <mxCell id="bU0_iT4Fgn5RnMaW8USa-568" value="return action state" style="edgeLabel;html=1;align=center;verticalAlign=middle;resizable=0;points=[];fontSize=17;" vertex="1" connectable="0" parent="1">
          <mxGeometry x="3273" y="1692.17" as="geometry" />
        </mxCell>
        <mxCell id="bU0_iT4Fgn5RnMaW8USa-570" value="" style="endArrow=none;dashed=1;html=1;dashPattern=1 3;strokeWidth=2;rounded=0;fontSize=17;" edge="1" parent="1" target="bU0_iT4Fgn5RnMaW8USa-524">
          <mxGeometry width="50" height="50" relative="1" as="geometry">
            <mxPoint x="2858" y="1773" as="sourcePoint" />
            <mxPoint x="2908" y="1723" as="targetPoint" />
          </mxGeometry>
        </mxCell>
        <mxCell id="bU0_iT4Fgn5RnMaW8USa-571" value="" style="endArrow=none;dashed=1;html=1;dashPattern=1 3;strokeWidth=2;rounded=0;fontSize=17;entryX=1.003;entryY=0.659;entryDx=0;entryDy=0;entryPerimeter=0;" edge="1" parent="1" target="bU0_iT4Fgn5RnMaW8USa-524">
          <mxGeometry width="50" height="50" relative="1" as="geometry">
            <mxPoint x="2861" y="1781" as="sourcePoint" />
            <mxPoint x="2911" y="1731" as="targetPoint" />
          </mxGeometry>
        </mxCell>
        <mxCell id="bU0_iT4Fgn5RnMaW8USa-572" value="else if door is closed" style="text;html=1;align=center;verticalAlign=middle;resizable=0;points=[];autosize=1;strokeColor=none;fillColor=none;fontSize=17;fontStyle=0;labelBorderColor=default;" vertex="1" parent="1">
          <mxGeometry x="2853" y="1782" width="172" height="32" as="geometry" />
        </mxCell>
        <mxCell id="bU0_iT4Fgn5RnMaW8USa-573" value="" style="endArrow=classic;html=1;rounded=0;fontSize=17;" edge="1" parent="1" target="bU0_iT4Fgn5RnMaW8USa-466">
          <mxGeometry width="50" height="50" relative="1" as="geometry">
            <mxPoint x="2972" y="1829" as="sourcePoint" />
            <mxPoint x="3022" y="1779" as="targetPoint" />
          </mxGeometry>
        </mxCell>
        <mxCell id="bU0_iT4Fgn5RnMaW8USa-578" value="get RL state" style="edgeLabel;html=1;align=center;verticalAlign=middle;resizable=0;points=[];fontSize=17;" vertex="1" connectable="0" parent="bU0_iT4Fgn5RnMaW8USa-573">
          <mxGeometry x="0.3261" y="-3" relative="1" as="geometry">
            <mxPoint x="-48" y="-11" as="offset" />
          </mxGeometry>
        </mxCell>
        <mxCell id="bU0_iT4Fgn5RnMaW8USa-574" value="" style="endArrow=classic;html=1;rounded=0;fontSize=17;" edge="1" parent="1" target="bU0_iT4Fgn5RnMaW8USa-676">
          <mxGeometry width="50" height="50" relative="1" as="geometry">
            <mxPoint x="2971" y="1864" as="sourcePoint" />
            <mxPoint x="3576.5" y="1864" as="targetPoint" />
          </mxGeometry>
        </mxCell>
        <mxCell id="bU0_iT4Fgn5RnMaW8USa-583" value="get LL state" style="edgeLabel;html=1;align=center;verticalAlign=middle;resizable=0;points=[];fontSize=17;" vertex="1" connectable="0" parent="bU0_iT4Fgn5RnMaW8USa-574">
          <mxGeometry x="0.3444" y="2" relative="1" as="geometry">
            <mxPoint as="offset" />
          </mxGeometry>
        </mxCell>
        <mxCell id="bU0_iT4Fgn5RnMaW8USa-575" value="" style="endArrow=classic;html=1;rounded=0;fontSize=17;dashed=1;dashPattern=8 8;" edge="1" parent="1">
          <mxGeometry width="50" height="50" relative="1" as="geometry">
            <mxPoint x="3446" y="1845" as="sourcePoint" />
            <mxPoint x="2965.681818181819" y="1845" as="targetPoint" />
          </mxGeometry>
        </mxCell>
        <mxCell id="bU0_iT4Fgn5RnMaW8USa-580" value="return RL state" style="edgeLabel;html=1;align=center;verticalAlign=middle;resizable=0;points=[];fontSize=17;" vertex="1" connectable="0" parent="1">
          <mxGeometry x="3236.9972727272734" y="1846.0000000000005" as="geometry" />
        </mxCell>
        <mxCell id="bU0_iT4Fgn5RnMaW8USa-586" value="if lights are on" style="shape=umlFrame;whiteSpace=wrap;html=1;pointerEvents=0;fontSize=17;width=129;height=25;" vertex="1" parent="1">
          <mxGeometry x="2922" y="1912" width="1029" height="147" as="geometry" />
        </mxCell>
        <mxCell id="bU0_iT4Fgn5RnMaW8USa-587" value="" style="endArrow=classic;html=1;rounded=0;fontSize=50;dashed=1;dashPattern=8 8;" edge="1" parent="1">
          <mxGeometry width="50" height="50" relative="1" as="geometry">
            <mxPoint x="3579" y="1887" as="sourcePoint" />
            <mxPoint x="2966" y="1887" as="targetPoint" />
          </mxGeometry>
        </mxCell>
        <mxCell id="bU0_iT4Fgn5RnMaW8USa-590" value="return LL state" style="edgeLabel;html=1;align=center;verticalAlign=middle;resizable=0;points=[];fontSize=17;" vertex="1" connectable="0" parent="bU0_iT4Fgn5RnMaW8USa-587">
          <mxGeometry x="-0.3537" y="1" relative="1" as="geometry">
            <mxPoint as="offset" />
          </mxGeometry>
        </mxCell>
        <mxCell id="bU0_iT4Fgn5RnMaW8USa-591" value="" style="endArrow=classic;html=1;rounded=0;fontSize=17;" edge="1" parent="1">
          <mxGeometry width="50" height="50" relative="1" as="geometry">
            <mxPoint x="2972" y="1948" as="sourcePoint" />
            <mxPoint x="3896" y="1951" as="targetPoint" />
            <Array as="points">
              <mxPoint x="3421" y="1948" />
            </Array>
          </mxGeometry>
        </mxCell>
        <mxCell id="bU0_iT4Fgn5RnMaW8USa-592" value="delay 3 seconds" style="edgeLabel;html=1;align=center;verticalAlign=middle;resizable=0;points=[];fontSize=17;" vertex="1" connectable="0" parent="bU0_iT4Fgn5RnMaW8USa-591">
          <mxGeometry x="0.1182" y="2" relative="1" as="geometry">
            <mxPoint x="1" as="offset" />
          </mxGeometry>
        </mxCell>
        <mxCell id="bU0_iT4Fgn5RnMaW8USa-600" value="" style="endArrow=classic;html=1;rounded=0;fontSize=50;" edge="1" parent="1">
          <mxGeometry width="50" height="50" relative="1" as="geometry">
            <mxPoint x="2970" y="1972" as="sourcePoint" />
            <mxPoint x="3441" y="1972" as="targetPoint" />
          </mxGeometry>
        </mxCell>
        <mxCell id="bU0_iT4Fgn5RnMaW8USa-607" value="RL off" style="edgeLabel;html=1;align=center;verticalAlign=middle;resizable=0;points=[];fontSize=17;" vertex="1" connectable="0" parent="bU0_iT4Fgn5RnMaW8USa-600">
          <mxGeometry x="0.1211" relative="1" as="geometry">
            <mxPoint x="1" as="offset" />
          </mxGeometry>
        </mxCell>
        <mxCell id="bU0_iT4Fgn5RnMaW8USa-601" value="" style="endArrow=classic;html=1;rounded=0;fontSize=50;" edge="1" parent="1">
          <mxGeometry width="50" height="50" relative="1" as="geometry">
            <mxPoint x="2972" y="2016" as="sourcePoint" />
            <mxPoint x="3575" y="2016" as="targetPoint" />
          </mxGeometry>
        </mxCell>
        <mxCell id="bU0_iT4Fgn5RnMaW8USa-602" value="" style="endArrow=classic;html=1;rounded=0;fontSize=50;dashed=1;dashPattern=8 8;" edge="1" parent="1">
          <mxGeometry width="50" height="50" relative="1" as="geometry">
            <mxPoint x="3441" y="1988" as="sourcePoint" />
            <mxPoint x="2968" y="1988.25" as="targetPoint" />
          </mxGeometry>
        </mxCell>
        <mxCell id="bU0_iT4Fgn5RnMaW8USa-603" value="" style="endArrow=classic;html=1;rounded=0;fontSize=50;dashed=1;dashPattern=8 8;" edge="1" parent="1">
          <mxGeometry width="50" height="50" relative="1" as="geometry">
            <mxPoint x="3574" y="2040" as="sourcePoint" />
            <mxPoint x="2966" y="2040" as="targetPoint" />
          </mxGeometry>
        </mxCell>
        <mxCell id="bU0_iT4Fgn5RnMaW8USa-604" value="LL off" style="edgeLabel;html=1;align=center;verticalAlign=middle;resizable=0;points=[];fontSize=17;" vertex="1" connectable="0" parent="1">
          <mxGeometry x="3470" y="1952" as="geometry">
            <mxPoint x="-287" y="64" as="offset" />
          </mxGeometry>
        </mxCell>
        <mxCell id="bU0_iT4Fgn5RnMaW8USa-605" value="return action state" style="edgeLabel;html=1;align=center;verticalAlign=middle;resizable=0;points=[];fontSize=17;" vertex="1" connectable="0" parent="1">
          <mxGeometry x="3211" y="1989.5" as="geometry" />
        </mxCell>
        <mxCell id="bU0_iT4Fgn5RnMaW8USa-606" value="return action state" style="edgeLabel;html=1;align=center;verticalAlign=middle;resizable=0;points=[];fontSize=17;" vertex="1" connectable="0" parent="1">
          <mxGeometry x="3194" y="2041" as="geometry" />
        </mxCell>
        <mxCell id="bU0_iT4Fgn5RnMaW8USa-608" value="receive data" style="edgeLabel;html=1;align=center;verticalAlign=middle;resizable=0;points=[];fontSize=17;" vertex="1" connectable="0" parent="1">
          <mxGeometry x="3058.001764705882" y="1123" as="geometry" />
        </mxCell>
        <mxCell id="bU0_iT4Fgn5RnMaW8USa-637" value="if car is moving" style="shape=umlFrame;whiteSpace=wrap;html=1;pointerEvents=0;fontSize=17;width=129;height=20;" vertex="1" parent="1">
          <mxGeometry x="2890.25" y="2267" width="1115" height="481" as="geometry" />
        </mxCell>
        <mxCell id="bU0_iT4Fgn5RnMaW8USa-638" value="" style="endArrow=classic;html=1;rounded=0;fontSize=50;" edge="1" parent="1" target="bU0_iT4Fgn5RnMaW8USa-681">
          <mxGeometry width="50" height="50" relative="1" as="geometry">
            <mxPoint x="2969.25" y="2315" as="sourcePoint" />
            <mxPoint x="3736.25" y="2315" as="targetPoint" />
          </mxGeometry>
        </mxCell>
        <mxCell id="bU0_iT4Fgn5RnMaW8USa-639" value="" style="endArrow=classic;html=1;rounded=0;fontSize=50;dashed=1;dashPattern=8 8;" edge="1" parent="1">
          <mxGeometry width="50" height="50" relative="1" as="geometry">
            <mxPoint x="3738.25" y="2340" as="sourcePoint" />
            <mxPoint x="2971" y="2340" as="targetPoint" />
          </mxGeometry>
        </mxCell>
        <mxCell id="bU0_iT4Fgn5RnMaW8USa-640" value="" style="endArrow=classic;html=1;rounded=0;fontSize=50;" edge="1" parent="1" target="bU0_iT4Fgn5RnMaW8USa-671">
          <mxGeometry width="50" height="50" relative="1" as="geometry">
            <mxPoint x="2974.25" y="2377" as="sourcePoint" />
            <mxPoint x="3445.25" y="2377" as="targetPoint" />
          </mxGeometry>
        </mxCell>
        <mxCell id="bU0_iT4Fgn5RnMaW8USa-641" value="" style="endArrow=classic;html=1;rounded=0;fontSize=50;" edge="1" parent="1" target="bU0_iT4Fgn5RnMaW8USa-674">
          <mxGeometry width="50" height="50" relative="1" as="geometry">
            <mxPoint x="2965.25" y="2441" as="sourcePoint" />
            <mxPoint x="3579.25" y="2441" as="targetPoint" />
          </mxGeometry>
        </mxCell>
        <mxCell id="bU0_iT4Fgn5RnMaW8USa-642" value="" style="endArrow=classic;html=1;rounded=0;fontSize=50;dashed=1;dashPattern=8 8;" edge="1" parent="1">
          <mxGeometry width="50" height="50" relative="1" as="geometry">
            <mxPoint x="3444.25" y="2393" as="sourcePoint" />
            <mxPoint x="2971.25" y="2393.25" as="targetPoint" />
          </mxGeometry>
        </mxCell>
        <mxCell id="bU0_iT4Fgn5RnMaW8USa-643" value="" style="endArrow=classic;html=1;rounded=0;fontSize=50;dashed=1;dashPattern=8 8;" edge="1" parent="1">
          <mxGeometry width="50" height="50" relative="1" as="geometry">
            <mxPoint x="3581.25" y="2457" as="sourcePoint" />
            <mxPoint x="2968.25" y="2457" as="targetPoint" />
          </mxGeometry>
        </mxCell>
        <mxCell id="bU0_iT4Fgn5RnMaW8USa-644" value="Buzzer off" style="edgeLabel;html=1;align=center;verticalAlign=middle;resizable=0;points=[];fontSize=17;" vertex="1" connectable="0" parent="1">
          <mxGeometry x="3379.25" y="2313" as="geometry" />
        </mxCell>
        <mxCell id="bU0_iT4Fgn5RnMaW8USa-645" value="return action state" style="edgeLabel;html=1;align=center;verticalAlign=middle;resizable=0;points=[];fontSize=17;" vertex="1" connectable="0" parent="1">
          <mxGeometry x="3384.25" y="2339" as="geometry" />
        </mxCell>
        <mxCell id="bU0_iT4Fgn5RnMaW8USa-646" value="RL on" style="edgeLabel;html=1;align=center;verticalAlign=middle;resizable=0;points=[];fontSize=17;" vertex="1" connectable="0" parent="1">
          <mxGeometry x="3492.25" y="2313" as="geometry">
            <mxPoint x="-287" y="64" as="offset" />
          </mxGeometry>
        </mxCell>
        <mxCell id="bU0_iT4Fgn5RnMaW8USa-647" value="LL on" style="edgeLabel;html=1;align=center;verticalAlign=middle;resizable=0;points=[];fontSize=17;" vertex="1" connectable="0" parent="1">
          <mxGeometry x="3590.25" y="2377" as="geometry">
            <mxPoint x="-287" y="64" as="offset" />
          </mxGeometry>
        </mxCell>
        <mxCell id="bU0_iT4Fgn5RnMaW8USa-648" value="return action state" style="edgeLabel;html=1;align=center;verticalAlign=middle;resizable=0;points=[];fontSize=17;" vertex="1" connectable="0" parent="1">
          <mxGeometry x="3218.25" y="2394.5" as="geometry">
            <mxPoint x="-1" y="-1" as="offset" />
          </mxGeometry>
        </mxCell>
        <mxCell id="bU0_iT4Fgn5RnMaW8USa-649" value="return action state" style="edgeLabel;html=1;align=center;verticalAlign=middle;resizable=0;points=[];fontSize=17;" vertex="1" connectable="0" parent="1">
          <mxGeometry x="3274.25" y="2457" as="geometry" />
        </mxCell>
        <mxCell id="bU0_iT4Fgn5RnMaW8USa-650" value="" style="endArrow=none;dashed=1;html=1;dashPattern=1 3;strokeWidth=2;rounded=0;fontSize=17;entryX=1;entryY=0.492;entryDx=0;entryDy=0;entryPerimeter=0;" edge="1" parent="1" target="bU0_iT4Fgn5RnMaW8USa-637">
          <mxGeometry width="50" height="50" relative="1" as="geometry">
            <mxPoint x="2888.25" y="2495" as="sourcePoint" />
            <mxPoint x="2938.25" y="2445" as="targetPoint" />
          </mxGeometry>
        </mxCell>
        <mxCell id="bU0_iT4Fgn5RnMaW8USa-651" value="else if car is stopped" style="text;html=1;align=center;verticalAlign=middle;resizable=0;points=[];autosize=1;strokeColor=none;fillColor=none;fontSize=17;fontStyle=0;labelBorderColor=default;" vertex="1" parent="1">
          <mxGeometry x="2883.75" y="2499" width="173" height="32" as="geometry" />
        </mxCell>
        <mxCell id="bU0_iT4Fgn5RnMaW8USa-652" value="" style="endArrow=classic;html=1;rounded=0;fontSize=50;" edge="1" parent="1">
          <mxGeometry width="50" height="50" relative="1" as="geometry">
            <mxPoint x="2972" y="2547" as="sourcePoint" />
            <mxPoint x="3724" y="2547" as="targetPoint" />
          </mxGeometry>
        </mxCell>
        <mxCell id="bU0_iT4Fgn5RnMaW8USa-653" value="" style="endArrow=classic;html=1;rounded=0;fontSize=50;dashed=1;dashPattern=8 8;" edge="1" parent="1">
          <mxGeometry width="50" height="50" relative="1" as="geometry">
            <mxPoint x="3735.25" y="2572.17" as="sourcePoint" />
            <mxPoint x="2964.25" y="2572" as="targetPoint" />
          </mxGeometry>
        </mxCell>
        <mxCell id="bU0_iT4Fgn5RnMaW8USa-654" value="" style="endArrow=classic;html=1;rounded=0;fontSize=50;" edge="1" parent="1" target="bU0_iT4Fgn5RnMaW8USa-672">
          <mxGeometry width="50" height="50" relative="1" as="geometry">
            <mxPoint x="2976.25" y="2609.17" as="sourcePoint" />
            <mxPoint x="3447.25" y="2609.17" as="targetPoint" />
          </mxGeometry>
        </mxCell>
        <mxCell id="bU0_iT4Fgn5RnMaW8USa-655" value="" style="endArrow=classic;html=1;rounded=0;fontSize=50;" edge="1" parent="1">
          <mxGeometry width="50" height="50" relative="1" as="geometry">
            <mxPoint x="2967.25" y="2673.17" as="sourcePoint" />
            <mxPoint x="3575" y="2673" as="targetPoint" />
          </mxGeometry>
        </mxCell>
        <mxCell id="bU0_iT4Fgn5RnMaW8USa-656" value="" style="endArrow=classic;html=1;rounded=0;fontSize=50;dashed=1;dashPattern=8 8;" edge="1" parent="1">
          <mxGeometry width="50" height="50" relative="1" as="geometry">
            <mxPoint x="3445.25" y="2625.17" as="sourcePoint" />
            <mxPoint x="2972.25" y="2625.42" as="targetPoint" />
          </mxGeometry>
        </mxCell>
        <mxCell id="bU0_iT4Fgn5RnMaW8USa-657" value="" style="endArrow=classic;html=1;rounded=0;fontSize=50;dashed=1;dashPattern=8 8;" edge="1" parent="1">
          <mxGeometry width="50" height="50" relative="1" as="geometry">
            <mxPoint x="3574" y="2689" as="sourcePoint" />
            <mxPoint x="2970.25" y="2689.17" as="targetPoint" />
          </mxGeometry>
        </mxCell>
        <mxCell id="bU0_iT4Fgn5RnMaW8USa-658" value="Buzzer on" style="edgeLabel;html=1;align=center;verticalAlign=middle;resizable=0;points=[];fontSize=17;" vertex="1" connectable="0" parent="1">
          <mxGeometry x="3381.25" y="2545.17" as="geometry" />
        </mxCell>
        <mxCell id="bU0_iT4Fgn5RnMaW8USa-659" value="return action state" style="edgeLabel;html=1;align=center;verticalAlign=middle;resizable=0;points=[];fontSize=17;" vertex="1" connectable="0" parent="1">
          <mxGeometry x="3386.25" y="2571.17" as="geometry" />
        </mxCell>
        <mxCell id="bU0_iT4Fgn5RnMaW8USa-660" value="RL on" style="edgeLabel;html=1;align=center;verticalAlign=middle;resizable=0;points=[];fontSize=17;" vertex="1" connectable="0" parent="1">
          <mxGeometry x="3494.25" y="2545.17" as="geometry">
            <mxPoint x="-287" y="64" as="offset" />
          </mxGeometry>
        </mxCell>
        <mxCell id="bU0_iT4Fgn5RnMaW8USa-661" value="LL on" style="edgeLabel;html=1;align=center;verticalAlign=middle;resizable=0;points=[];fontSize=17;" vertex="1" connectable="0" parent="1">
          <mxGeometry x="3592.25" y="2609.17" as="geometry">
            <mxPoint x="-287" y="64" as="offset" />
          </mxGeometry>
        </mxCell>
        <mxCell id="bU0_iT4Fgn5RnMaW8USa-662" value="return action state" style="edgeLabel;html=1;align=center;verticalAlign=middle;resizable=0;points=[];fontSize=17;" vertex="1" connectable="0" parent="1">
          <mxGeometry x="3220.25" y="2626.67" as="geometry" />
        </mxCell>
        <mxCell id="bU0_iT4Fgn5RnMaW8USa-663" value="return action state" style="edgeLabel;html=1;align=center;verticalAlign=middle;resizable=0;points=[];fontSize=17;" vertex="1" connectable="0" parent="1">
          <mxGeometry x="3276.25" y="2689.17" as="geometry" />
        </mxCell>
        <mxCell id="bU0_iT4Fgn5RnMaW8USa-664" value="if data is received successfully and light switch is pressed" style="shape=umlFrame;whiteSpace=wrap;html=1;pointerEvents=0;fontSize=17;width=448;height=25;" vertex="1" parent="1">
          <mxGeometry x="2820.13" y="2232" width="1226.87" height="551" as="geometry" />
        </mxCell>
        <mxCell id="bU0_iT4Fgn5RnMaW8USa-666" value="" style="html=1;points=[];perimeter=orthogonalPerimeter;outlineConnect=0;targetShapes=umlLifeline;portConstraint=eastwest;newEdgeStyle={&quot;edgeStyle&quot;:&quot;elbowEdgeStyle&quot;,&quot;elbow&quot;:&quot;vertical&quot;,&quot;curved&quot;:0,&quot;rounded&quot;:0};rounded=1;labelBorderColor=default;fontSize=17;fillColor=#ffe6cc;strokeColor=#d79b00;" vertex="1" parent="1">
          <mxGeometry x="3442" y="1358" width="10" height="64" as="geometry" />
        </mxCell>
        <mxCell id="bU0_iT4Fgn5RnMaW8USa-668" value="" style="endArrow=none;html=1;rounded=0;fontSize=50;dashed=1;dashPattern=8 8;" edge="1" parent="1" target="bU0_iT4Fgn5RnMaW8USa-667">
          <mxGeometry width="50" height="50" relative="1" as="geometry">
            <mxPoint x="3447" y="1628.17" as="sourcePoint" />
            <mxPoint x="2974" y="1628.42" as="targetPoint" />
          </mxGeometry>
        </mxCell>
        <mxCell id="bU0_iT4Fgn5RnMaW8USa-667" value="" style="html=1;points=[];perimeter=orthogonalPerimeter;outlineConnect=0;targetShapes=umlLifeline;portConstraint=eastwest;newEdgeStyle={&quot;edgeStyle&quot;:&quot;elbowEdgeStyle&quot;,&quot;elbow&quot;:&quot;vertical&quot;,&quot;curved&quot;:0,&quot;rounded&quot;:0};rounded=1;labelBorderColor=default;fontSize=17;fillColor=#ffe6cc;strokeColor=#d79b00;" vertex="1" parent="1">
          <mxGeometry x="3442" y="1590" width="10" height="64" as="geometry" />
        </mxCell>
        <mxCell id="bU0_iT4Fgn5RnMaW8USa-669" value="" style="html=1;points=[];perimeter=orthogonalPerimeter;outlineConnect=0;targetShapes=umlLifeline;portConstraint=eastwest;newEdgeStyle={&quot;edgeStyle&quot;:&quot;elbowEdgeStyle&quot;,&quot;elbow&quot;:&quot;vertical&quot;,&quot;curved&quot;:0,&quot;rounded&quot;:0};rounded=1;labelBorderColor=default;fontSize=17;fillColor=#ffe6cc;strokeColor=#d79b00;" vertex="1" parent="1">
          <mxGeometry x="3442" y="1813" width="10" height="43" as="geometry" />
        </mxCell>
        <mxCell id="bU0_iT4Fgn5RnMaW8USa-670" value="" style="html=1;points=[];perimeter=orthogonalPerimeter;outlineConnect=0;targetShapes=umlLifeline;portConstraint=eastwest;newEdgeStyle={&quot;edgeStyle&quot;:&quot;elbowEdgeStyle&quot;,&quot;elbow&quot;:&quot;vertical&quot;,&quot;curved&quot;:0,&quot;rounded&quot;:0};rounded=1;labelBorderColor=default;fontSize=17;fillColor=#ffe6cc;strokeColor=#d79b00;" vertex="1" parent="1">
          <mxGeometry x="3439" y="1960" width="10" height="43" as="geometry" />
        </mxCell>
        <mxCell id="bU0_iT4Fgn5RnMaW8USa-671" value="" style="html=1;points=[];perimeter=orthogonalPerimeter;outlineConnect=0;targetShapes=umlLifeline;portConstraint=eastwest;newEdgeStyle={&quot;edgeStyle&quot;:&quot;elbowEdgeStyle&quot;,&quot;elbow&quot;:&quot;vertical&quot;,&quot;curved&quot;:0,&quot;rounded&quot;:0};rounded=1;labelBorderColor=default;fontSize=17;fillColor=#ffe6cc;strokeColor=#d79b00;" vertex="1" parent="1">
          <mxGeometry x="3439.5" y="2365" width="10" height="43" as="geometry" />
        </mxCell>
        <mxCell id="bU0_iT4Fgn5RnMaW8USa-672" value="" style="html=1;points=[];perimeter=orthogonalPerimeter;outlineConnect=0;targetShapes=umlLifeline;portConstraint=eastwest;newEdgeStyle={&quot;edgeStyle&quot;:&quot;elbowEdgeStyle&quot;,&quot;elbow&quot;:&quot;vertical&quot;,&quot;curved&quot;:0,&quot;rounded&quot;:0};rounded=1;labelBorderColor=default;fontSize=17;fillColor=#ffe6cc;strokeColor=#d79b00;" vertex="1" parent="1">
          <mxGeometry x="3442" y="2596" width="10" height="43" as="geometry" />
        </mxCell>
        <mxCell id="bU0_iT4Fgn5RnMaW8USa-674" value="" style="html=1;points=[];perimeter=orthogonalPerimeter;outlineConnect=0;targetShapes=umlLifeline;portConstraint=eastwest;newEdgeStyle={&quot;edgeStyle&quot;:&quot;elbowEdgeStyle&quot;,&quot;elbow&quot;:&quot;vertical&quot;,&quot;curved&quot;:0,&quot;rounded&quot;:0};rounded=1;labelBorderColor=default;fontSize=17;fillColor=#ffe6cc;strokeColor=#d79b00;" vertex="1" parent="1">
          <mxGeometry x="3572" y="2425" width="10" height="43" as="geometry" />
        </mxCell>
        <mxCell id="bU0_iT4Fgn5RnMaW8USa-675" value="" style="html=1;points=[];perimeter=orthogonalPerimeter;outlineConnect=0;targetShapes=umlLifeline;portConstraint=eastwest;newEdgeStyle={&quot;edgeStyle&quot;:&quot;elbowEdgeStyle&quot;,&quot;elbow&quot;:&quot;vertical&quot;,&quot;curved&quot;:0,&quot;rounded&quot;:0};rounded=1;labelBorderColor=default;fontSize=17;fillColor=#ffe6cc;strokeColor=#d79b00;" vertex="1" parent="1">
          <mxGeometry x="3572" y="2003" width="10" height="43" as="geometry" />
        </mxCell>
        <mxCell id="bU0_iT4Fgn5RnMaW8USa-676" value="" style="html=1;points=[];perimeter=orthogonalPerimeter;outlineConnect=0;targetShapes=umlLifeline;portConstraint=eastwest;newEdgeStyle={&quot;edgeStyle&quot;:&quot;elbowEdgeStyle&quot;,&quot;elbow&quot;:&quot;vertical&quot;,&quot;curved&quot;:0,&quot;rounded&quot;:0};rounded=1;labelBorderColor=default;fontSize=17;fillColor=#ffe6cc;strokeColor=#d79b00;" vertex="1" parent="1">
          <mxGeometry x="3572" y="1856" width="10" height="43" as="geometry" />
        </mxCell>
        <mxCell id="bU0_iT4Fgn5RnMaW8USa-681" value="" style="html=1;points=[];perimeter=orthogonalPerimeter;outlineConnect=0;targetShapes=umlLifeline;portConstraint=eastwest;newEdgeStyle={&quot;edgeStyle&quot;:&quot;elbowEdgeStyle&quot;,&quot;elbow&quot;:&quot;vertical&quot;,&quot;curved&quot;:0,&quot;rounded&quot;:0};rounded=1;labelBorderColor=default;fontSize=17;fillColor=#ffe6cc;strokeColor=#d79b00;" vertex="1" parent="1">
          <mxGeometry x="3729" y="2293" width="10" height="80" as="geometry" />
        </mxCell>
        <mxCell id="bU0_iT4Fgn5RnMaW8USa-682" value="" style="html=1;points=[];perimeter=orthogonalPerimeter;outlineConnect=0;targetShapes=umlLifeline;portConstraint=eastwest;newEdgeStyle={&quot;edgeStyle&quot;:&quot;elbowEdgeStyle&quot;,&quot;elbow&quot;:&quot;vertical&quot;,&quot;curved&quot;:0,&quot;rounded&quot;:0};rounded=1;labelBorderColor=default;fontSize=17;fillColor=#ffe6cc;strokeColor=#d79b00;" vertex="1" parent="1">
          <mxGeometry x="3727" y="2523" width="10" height="80" as="geometry" />
        </mxCell>
        <mxCell id="bU0_iT4Fgn5RnMaW8USa-683" value="" style="html=1;points=[];perimeter=orthogonalPerimeter;outlineConnect=0;targetShapes=umlLifeline;portConstraint=eastwest;newEdgeStyle={&quot;edgeStyle&quot;:&quot;elbowEdgeStyle&quot;,&quot;elbow&quot;:&quot;vertical&quot;,&quot;curved&quot;:0,&quot;rounded&quot;:0};rounded=1;labelBorderColor=default;fontSize=17;fillColor=#ffe6cc;strokeColor=#d79b00;" vertex="1" parent="1">
          <mxGeometry x="3897" y="1930.5" width="10" height="43" as="geometry" />
        </mxCell>
        <mxCell id="bU0_iT4Fgn5RnMaW8USa-684" value="assuming data is received successfully else won&#39;t enter here" style="text;html=1;align=center;verticalAlign=middle;resizable=0;points=[];autosize=1;strokeColor=none;fillColor=none;fontSize=17;" vertex="1" parent="1">
          <mxGeometry x="2853" y="1172" width="473" height="32" as="geometry" />
        </mxCell>
      </root>
    </mxGraphModel>
  </diagram>
</mxfile>
